%TF.GenerationSoftware,KiCad,Pcbnew,8.0.4*%
%TF.CreationDate,2024-09-01T16:40:05+08:00*%
%TF.ProjectId,UINIO-MCU-HC32F460KETA,55494e49-4f2d-44d4-9355-2d4843333246,Version 1.0.0*%
%TF.SameCoordinates,PX71f45d0PY4ce7800*%
%TF.FileFunction,Copper,L2,Bot*%
%TF.FilePolarity,Positive*%
%FSLAX46Y46*%
G04 Gerber Fmt 4.6, Leading zero omitted, Abs format (unit mm)*
G04 Created by KiCad (PCBNEW 8.0.4) date 2024-09-01 16:40:05*
%MOMM*%
%LPD*%
G01*
G04 APERTURE LIST*
%TA.AperFunction,ComponentPad*%
%ADD10R,1.700000X1.700000*%
%TD*%
%TA.AperFunction,ComponentPad*%
%ADD11O,1.700000X1.700000*%
%TD*%
%TA.AperFunction,ComponentPad*%
%ADD12O,2.100000X1.000000*%
%TD*%
%TA.AperFunction,ComponentPad*%
%ADD13O,1.900000X1.000000*%
%TD*%
%TA.AperFunction,ViaPad*%
%ADD14C,0.700000*%
%TD*%
%TA.AperFunction,ViaPad*%
%ADD15C,0.500000*%
%TD*%
%TA.AperFunction,ViaPad*%
%ADD16C,0.600000*%
%TD*%
%TA.AperFunction,ViaPad*%
%ADD17C,0.900000*%
%TD*%
%TA.AperFunction,Conductor*%
%ADD18C,0.300000*%
%TD*%
%TA.AperFunction,Conductor*%
%ADD19C,0.200000*%
%TD*%
%TA.AperFunction,Conductor*%
%ADD20C,0.500000*%
%TD*%
G04 APERTURE END LIST*
D10*
%TO.P,J4,1,Pin_1*%
%TO.N,/PB11{slash}MD*%
X23390000Y-33060000D03*
D11*
%TO.P,J4,2,Pin_2*%
%TO.N,GND*%
X20850000Y-33060000D03*
%TO.P,J4,3,Pin_3*%
X18310000Y-33060000D03*
%TD*%
D10*
%TO.P,J5,1,Pin_1*%
%TO.N,GND*%
X-3650000Y-12560000D03*
D11*
%TO.P,J5,2,Pin_2*%
%TO.N,Net-(J5-Pin_2)*%
X-3650000Y-10020000D03*
%TO.P,J5,3,Pin_3*%
%TO.N,GND*%
X-3650000Y-7480000D03*
%TO.P,J5,4,Pin_4*%
%TO.N,Net-(J5-Pin_2)*%
X-3650000Y-4940000D03*
%TD*%
D12*
%TO.P,USB1,13,GND*%
%TO.N,GND*%
X789000Y-17135000D03*
%TO.P,USB1,14,GND*%
X789000Y-25785000D03*
D13*
%TO.P,USB1,15,GND*%
X-3411000Y-17135000D03*
%TO.P,USB1,16,GND*%
X-3411000Y-25785000D03*
%TD*%
D10*
%TO.P,J3,1,Pin_1*%
%TO.N,/PA8*%
X2490000Y-1360000D03*
D11*
%TO.P,J3,2,Pin_2*%
%TO.N,/PC9*%
X5030000Y-1360000D03*
%TO.P,J3,3,Pin_3*%
%TO.N,/PC8*%
X7570000Y-1360000D03*
%TO.P,J3,4,Pin_4*%
%TO.N,/PC7*%
X10110000Y-1360000D03*
%TO.P,J3,5,Pin_5*%
%TO.N,/PC6*%
X12650000Y-1360000D03*
%TO.P,J3,6,Pin_6*%
%TO.N,/PB15*%
X15190000Y-1360000D03*
%TO.P,J3,7,Pin_7*%
%TO.N,/PB14*%
X17730000Y-1360000D03*
%TO.P,J3,8,Pin_8*%
%TO.N,/PB13*%
X20270000Y-1360000D03*
%TO.P,J3,9,Pin_9*%
%TO.N,/PB12*%
X22810000Y-1360000D03*
%TO.P,J3,10,Pin_10*%
%TO.N,VCC_3.3V*%
X25350000Y-1360000D03*
%TO.P,J3,11,Pin_11*%
%TO.N,GND*%
X27890000Y-1360000D03*
%TO.P,J3,12,Pin_12*%
%TO.N,/PB10*%
X30430000Y-1360000D03*
%TO.P,J3,13,Pin_13*%
%TO.N,/PB2*%
X32970000Y-1360000D03*
%TO.P,J3,14,Pin_14*%
%TO.N,/PB1*%
X35510000Y-1360000D03*
%TO.P,J3,15,Pin_15*%
%TO.N,/PB0*%
X38050000Y-1360000D03*
%TO.P,J3,16,Pin_16*%
%TO.N,/PC5*%
X40590000Y-1360000D03*
%TO.P,J3,17,Pin_17*%
%TO.N,/PC4*%
X43130000Y-1360000D03*
%TO.P,J3,18,Pin_18*%
%TO.N,/PA7*%
X45670000Y-1360000D03*
%TO.P,J3,19,Pin_19*%
%TO.N,/PA6*%
X48210000Y-1360000D03*
%TO.P,J3,20,Pin_20*%
%TO.N,/PA5*%
X50750000Y-1360000D03*
%TO.P,J3,21,Pin_21*%
%TO.N,/PA4*%
X53290000Y-1360000D03*
%TO.P,J3,22,Pin_22*%
%TO.N,/AVCC*%
X55830000Y-1360000D03*
%TO.P,J3,23,Pin_23*%
%TO.N,/AVSS*%
X58370000Y-1360000D03*
%TO.P,J3,24,Pin_24*%
%TO.N,/PA3*%
X60910000Y-1360000D03*
%TD*%
D10*
%TO.P,J1,1,Pin_1*%
%TO.N,VCC_3.3V*%
X67030000Y-37960000D03*
D11*
%TO.P,J1,2,Pin_2*%
%TO.N,GND*%
X67030000Y-35420000D03*
%TO.P,J1,3,Pin_3*%
%TO.N,/PH2*%
X67030000Y-32880000D03*
%TO.P,J1,4,Pin_4*%
%TO.N,/PC13*%
X67030000Y-30340000D03*
%TO.P,J1,5,Pin_5*%
%TO.N,/NRST*%
X67030000Y-27800000D03*
%TO.P,J1,6,Pin_6*%
%TO.N,/PC0*%
X67030000Y-25260000D03*
%TO.P,J1,7,Pin_7*%
%TO.N,/PC1*%
X67030000Y-22720000D03*
%TO.P,J1,8,Pin_8*%
%TO.N,/PC2*%
X67030000Y-20180000D03*
%TO.P,J1,9,Pin_9*%
%TO.N,/PC3*%
X67030000Y-17640000D03*
%TO.P,J1,10,Pin_10*%
%TO.N,/AVSS{slash}VREFL*%
X67030000Y-15100000D03*
%TO.P,J1,11,Pin_11*%
%TO.N,/AVCC{slash}VREFH*%
X67030000Y-12560000D03*
%TO.P,J1,12,Pin_12*%
%TO.N,/PA0*%
X67030000Y-10020000D03*
%TO.P,J1,13,Pin_13*%
%TO.N,/PA1*%
X67030000Y-7480000D03*
%TO.P,J1,14,Pin_14*%
%TO.N,/PA2*%
X67030000Y-4940000D03*
%TD*%
D10*
%TO.P,J6,1,Pin_1*%
%TO.N,/PA14{slash}JTCK_SWCLK*%
X-3650000Y-37960000D03*
D11*
%TO.P,J6,2,Pin_2*%
%TO.N,/PA13{slash}JTMS_SWDIO*%
X-3650000Y-35420000D03*
%TO.P,J6,3,Pin_3*%
%TO.N,GND*%
X-3650000Y-32880000D03*
%TO.P,J6,4,Pin_4*%
%TO.N,VCC_3.3V*%
X-3650000Y-30340000D03*
%TD*%
D10*
%TO.P,J2,1,Pin_1*%
%TO.N,/PA9*%
X2490000Y-41560000D03*
D11*
%TO.P,J2,2,Pin_2*%
%TO.N,/PA10*%
X5030000Y-41560000D03*
%TO.P,J2,3,Pin_3*%
%TO.N,/PA11*%
X7570000Y-41560000D03*
%TO.P,J2,4,Pin_4*%
%TO.N,/PA12*%
X10110000Y-41560000D03*
%TO.P,J2,5,Pin_5*%
%TO.N,/PA13{slash}JTMS_SWDIO*%
X12650000Y-41560000D03*
%TO.P,J2,6,Pin_6*%
%TO.N,GND*%
X15190000Y-41560000D03*
%TO.P,J2,7,Pin_7*%
%TO.N,VCC_3.3V*%
X17730000Y-41560000D03*
%TO.P,J2,8,Pin_8*%
%TO.N,/PA14{slash}JTCK_SWCLK*%
X20270000Y-41560000D03*
%TO.P,J2,9,Pin_9*%
%TO.N,/PA15*%
X22810000Y-41560000D03*
%TO.P,J2,10,Pin_10*%
%TO.N,/PC10*%
X25350000Y-41560000D03*
%TO.P,J2,11,Pin_11*%
%TO.N,/PC11*%
X27890000Y-41560000D03*
%TO.P,J2,12,Pin_12*%
%TO.N,/PC12*%
X30430000Y-41560000D03*
%TO.P,J2,13,Pin_13*%
%TO.N,/PD2*%
X32970000Y-41560000D03*
%TO.P,J2,14,Pin_14*%
%TO.N,/PB3*%
X35510000Y-41560000D03*
%TO.P,J2,15,Pin_15*%
%TO.N,/PB4*%
X38050000Y-41560000D03*
%TO.P,J2,16,Pin_16*%
%TO.N,/PB5*%
X40590000Y-41560000D03*
%TO.P,J2,17,Pin_17*%
%TO.N,/PB6*%
X43130000Y-41560000D03*
%TO.P,J2,18,Pin_18*%
%TO.N,/PB7*%
X45670000Y-41560000D03*
%TO.P,J2,19,Pin_19*%
%TO.N,/PB11{slash}MD*%
X48210000Y-41560000D03*
%TO.P,J2,20,Pin_20*%
%TO.N,/PB8*%
X50750000Y-41560000D03*
%TO.P,J2,21,Pin_21*%
%TO.N,/PB9*%
X53290000Y-41560000D03*
%TO.P,J2,22,Pin_22*%
%TO.N,GND*%
X55830000Y-41560000D03*
%TO.P,J2,23,Pin_23*%
%TO.N,VCC_3.3V*%
X58370000Y-41560000D03*
%TO.P,J2,24,Pin_24*%
%TO.N,GND*%
X60910000Y-41560000D03*
%TD*%
D14*
%TO.N,GND*%
X30260000Y-20510000D03*
D15*
X44230000Y-21460000D03*
X330000Y-34270000D03*
X39000000Y-14750000D03*
X48230000Y-33460000D03*
D14*
X19230000Y-7460000D03*
D15*
X46230000Y-21460000D03*
X40250000Y-12750000D03*
X45000000Y-13500000D03*
X52230000Y-29460000D03*
X43750000Y-10000000D03*
X52230000Y-31460000D03*
D14*
X22230000Y-7460000D03*
X33260000Y-23510000D03*
D15*
X53206394Y-21424592D03*
X60000000Y-6040000D03*
X47000000Y-16500000D03*
X45230000Y-27460000D03*
D14*
X43910000Y-6250000D03*
X42910000Y-6250000D03*
D15*
X48000000Y-10500000D03*
X44230000Y-20460000D03*
D14*
X9815000Y-24750000D03*
X53442500Y-15630000D03*
D15*
X50230000Y-27460000D03*
D14*
X30260000Y-23510000D03*
D15*
X52230000Y-23460000D03*
X51230000Y-27460000D03*
X64000000Y-6040000D03*
X39000000Y-13750000D03*
X45250000Y-8500000D03*
X50230000Y-33460000D03*
X51230000Y-33460000D03*
X53250000Y-10750000D03*
D14*
X44910000Y-6250000D03*
X29260000Y-21510000D03*
D15*
X53250000Y-9750000D03*
D14*
X34260000Y-21510000D03*
D15*
X47230000Y-20460000D03*
X48000000Y-16500000D03*
X44500000Y-9250000D03*
X45230000Y-24460000D03*
X53250000Y-11750000D03*
D14*
X20230000Y-7460000D03*
X34260000Y-22510000D03*
D15*
X47230000Y-21460000D03*
X44000000Y-16500000D03*
D14*
X34260000Y-20510000D03*
D15*
X37750000Y-13750000D03*
D14*
X51590000Y-15630000D03*
D15*
X53230000Y-33460000D03*
D14*
X32260000Y-21510000D03*
X29260000Y-23510000D03*
D15*
X36500000Y-13250000D03*
D14*
X18230000Y-7460000D03*
D15*
X35960000Y-6620000D03*
D14*
X39910000Y-6250000D03*
D15*
X43230000Y-21460000D03*
X49230000Y-27460000D03*
X53230000Y-23460000D03*
D14*
X32260000Y-23510000D03*
D15*
X44230000Y-25460000D03*
X63020000Y-6040000D03*
X46230000Y-25460000D03*
X44230000Y-24460000D03*
X42250000Y-11500000D03*
D14*
X31260000Y-21510000D03*
D15*
X44230000Y-26460000D03*
X53250000Y-8750000D03*
X53230000Y-30460000D03*
D14*
X29260000Y-22510000D03*
X30260000Y-21510000D03*
X31260000Y-22510000D03*
D15*
X52230000Y-25460000D03*
D14*
X33260000Y-19510000D03*
D15*
X37750000Y-12750000D03*
X53230000Y-26460000D03*
X45230000Y-25460000D03*
X53230000Y-31460000D03*
D14*
X59000000Y-15630000D03*
D15*
X46230000Y-20460000D03*
X37750000Y-14750000D03*
D14*
X32260000Y-22510000D03*
D15*
X52230000Y-28460000D03*
X52250000Y-12750000D03*
D14*
X38910000Y-6250000D03*
X41910000Y-6250000D03*
X11177500Y-24750000D03*
D15*
X42230000Y-24460000D03*
X45230000Y-21460000D03*
D14*
X34260000Y-23510000D03*
D15*
X22900000Y-15890000D03*
X45000000Y-16500000D03*
D14*
X55295000Y-15630000D03*
D15*
X52230000Y-22460000D03*
X52230000Y-32460000D03*
D14*
X31260000Y-23510000D03*
D15*
X46500000Y-12000000D03*
X53218197Y-27514701D03*
X47230000Y-24460000D03*
D16*
X31690000Y-39700000D03*
D15*
X46230000Y-24460000D03*
X36750000Y-5830000D03*
D14*
X40910000Y-6250000D03*
X57147500Y-15630000D03*
X9210000Y-29560000D03*
D15*
X41250000Y-12250000D03*
D14*
X33260000Y-22510000D03*
D15*
X52250000Y-11750000D03*
D14*
X30260000Y-19510000D03*
D15*
X46230000Y-26460000D03*
X52230000Y-27460000D03*
D14*
X10610000Y-29560000D03*
X12540000Y-24750000D03*
X33260000Y-21510000D03*
D15*
X45230000Y-20460000D03*
D14*
X32260000Y-20510000D03*
D15*
X52250000Y-10750000D03*
X52230000Y-30460000D03*
X47230000Y-27460000D03*
X45750000Y-12750000D03*
X52230000Y-26460000D03*
X46230000Y-27460000D03*
X53230000Y-28460000D03*
X53230000Y-22460000D03*
X53250000Y-12750000D03*
D14*
X31260000Y-20510000D03*
D15*
X52230000Y-33460000D03*
X52250000Y-13750000D03*
D14*
X32260000Y-19510000D03*
D15*
X43000000Y-10750000D03*
X48230000Y-27460000D03*
X47230000Y-26460000D03*
D14*
X34260000Y-19510000D03*
D15*
X47000000Y-13500000D03*
D14*
X21230000Y-7460000D03*
D15*
X43230000Y-20460000D03*
X52230000Y-21460000D03*
X9250000Y-36500000D03*
X52250000Y-9750000D03*
X40250000Y-13750000D03*
D14*
X30260000Y-22510000D03*
D15*
X52230000Y-24460000D03*
X53230000Y-20460000D03*
X47250000Y-11250000D03*
X42230000Y-21460000D03*
X61000000Y-6040000D03*
X47230000Y-25460000D03*
X53230000Y-32460000D03*
D14*
X7810000Y-29560000D03*
D15*
X46000000Y-13500000D03*
X9250000Y-33500000D03*
X49230000Y-33460000D03*
D14*
X31260000Y-19510000D03*
D15*
X53250000Y-13750000D03*
D14*
X29260000Y-20510000D03*
D15*
X52250000Y-8750000D03*
X53230000Y-29460000D03*
X39000000Y-12750000D03*
X14000000Y-36500000D03*
D14*
X23000000Y-25230000D03*
D15*
X53230000Y-25460000D03*
X62000000Y-6040000D03*
X53230000Y-24460000D03*
X43230000Y-25460000D03*
D14*
X33260000Y-20510000D03*
D15*
X43230000Y-24460000D03*
X46000000Y-16500000D03*
X45230000Y-26460000D03*
X47000000Y-6750000D03*
D14*
X29260000Y-19510000D03*
D15*
X52230000Y-20460000D03*
D14*
%TO.N,VCC_5V*%
X3825000Y-23880000D03*
X2670000Y-19060000D03*
X3825000Y-19060000D03*
X2670000Y-23880000D03*
X4980000Y-23880000D03*
X4980000Y-19060000D03*
D15*
%TO.N,/NRST*%
X42175000Y-20425000D03*
D16*
X20580000Y-11610000D03*
D15*
%TO.N,/PA13{slash}JTMS_SWDIO*%
X2950000Y-32880000D03*
D16*
%TO.N,/PA14{slash}JTCK_SWCLK*%
X8360000Y-34240000D03*
D14*
%TO.N,VCC_3.3V*%
X6920000Y-32880000D03*
D17*
X26620000Y-10400000D03*
X13890000Y-17030000D03*
D14*
X6920000Y-35420000D03*
X50452500Y-9170000D03*
X35450000Y-35790000D03*
X22890000Y-14120000D03*
X27940000Y-14110000D03*
X40050000Y-7600000D03*
D17*
X15380000Y-26280000D03*
D14*
X25940000Y-26280000D03*
%TD*%
D18*
%TO.N,GND*%
X64630000Y-7620000D02*
X64630000Y-12700000D01*
D19*
%TO.N,/PB11{slash}MD*%
X23390000Y-33060000D02*
X23390000Y-34320000D01*
X23390000Y-34320000D02*
X27710000Y-38640000D01*
X27710000Y-38640000D02*
X45290000Y-38640000D01*
X45290000Y-38640000D02*
X48210000Y-41560000D01*
%TO.N,/NRST*%
X42175000Y-20425000D02*
X33360000Y-11610000D01*
X33360000Y-11610000D02*
X20580000Y-11610000D01*
D18*
%TO.N,/PA13{slash}JTMS_SWDIO*%
X2950000Y-32880000D02*
X2950000Y-32890000D01*
X11090000Y-40010000D02*
X12640000Y-41560000D01*
X10070000Y-40010000D02*
X11090000Y-40010000D01*
X2950000Y-32890000D02*
X10070000Y-40010000D01*
%TO.N,/PA14{slash}JTCK_SWCLK*%
X12950000Y-34240000D02*
X20270000Y-41560000D01*
X8360000Y-34240000D02*
X12950000Y-34240000D01*
D20*
%TO.N,VCC_3.3V*%
X58370000Y-37960000D02*
X67030000Y-37960000D01*
X40050000Y-7600000D02*
X29420000Y-7600000D01*
D18*
X27940000Y-14110000D02*
X27930000Y-14120000D01*
D20*
X6920000Y-35420000D02*
X11590000Y-35420000D01*
X50450000Y-9170000D02*
X48880000Y-7600000D01*
X8270000Y-26280000D02*
X4210000Y-30340000D01*
X15380000Y-26280000D02*
X15380000Y-26290000D01*
X4210000Y-30340000D02*
X-3650000Y-30340000D01*
X11590000Y-35420000D02*
X17730000Y-41560000D01*
X6920000Y-32880000D02*
X6920000Y-35420000D01*
D18*
X27930000Y-14120000D02*
X22890000Y-14120000D01*
D20*
X25020000Y-17030000D02*
X13890000Y-17030000D01*
X29420000Y-7600000D02*
X26620000Y-10400000D01*
X15380000Y-26290000D02*
X8790000Y-32880000D01*
X15380000Y-26280000D02*
X25940000Y-26280000D01*
X27940000Y-14110000D02*
X25020000Y-17030000D01*
X8790000Y-32880000D02*
X6920000Y-32880000D01*
X15380000Y-26280000D02*
X8270000Y-26280000D01*
X48880000Y-7600000D02*
X40050000Y-7600000D01*
X58370000Y-41560000D02*
X58370000Y-37960000D01*
X37620000Y-37960000D02*
X58370000Y-37960000D01*
X35450000Y-35790000D02*
X37620000Y-37960000D01*
X50452500Y-9170000D02*
X50450000Y-9170000D01*
X35450000Y-35790000D02*
X25940000Y-26280000D01*
%TD*%
%TA.AperFunction,Conductor*%
%TO.N,GND*%
G36*
X13949363Y-26800185D02*
G01*
X13995118Y-26852989D01*
X14005062Y-26922147D01*
X13976037Y-26985703D01*
X13970005Y-26992181D01*
X8619005Y-32343181D01*
X8557682Y-32376666D01*
X8531324Y-32379500D01*
X7676841Y-32379500D01*
X7647362Y-32375945D01*
X7646091Y-32375634D01*
X7646090Y-32375633D01*
X7646088Y-32375633D01*
X6969444Y-32278969D01*
X6951750Y-32277067D01*
X6951747Y-32277066D01*
X6951740Y-32277066D01*
X6950116Y-32276948D01*
X6941720Y-32276633D01*
X6930196Y-32275660D01*
X6920002Y-32274318D01*
X6919998Y-32274318D01*
X6763239Y-32294955D01*
X6763237Y-32294956D01*
X6617160Y-32355463D01*
X6491718Y-32451718D01*
X6395463Y-32577160D01*
X6334956Y-32723237D01*
X6334955Y-32723239D01*
X6314318Y-32879996D01*
X6314318Y-32879998D01*
X6314318Y-32880000D01*
X6318010Y-32908049D01*
X6318597Y-32923370D01*
X6318703Y-32923366D01*
X6318969Y-32929444D01*
X6340918Y-33083083D01*
X6409694Y-33564517D01*
X6415634Y-33606093D01*
X6416447Y-33609689D01*
X6419500Y-33637034D01*
X6419500Y-34663158D01*
X6415946Y-34692633D01*
X6415634Y-34693906D01*
X6415633Y-34693911D01*
X6415633Y-34693912D01*
X6395023Y-34838179D01*
X6318969Y-35370554D01*
X6317074Y-35388149D01*
X6316956Y-35389777D01*
X6316730Y-35395755D01*
X6294524Y-35462002D01*
X6240028Y-35505727D01*
X6170543Y-35513048D01*
X6108130Y-35481640D01*
X6105157Y-35478764D01*
X3625912Y-32999519D01*
X3609217Y-32978782D01*
X3570773Y-32918842D01*
X3570773Y-32918841D01*
X3439842Y-32714693D01*
X3439839Y-32714690D01*
X3401302Y-32654603D01*
X3401298Y-32654598D01*
X3399252Y-32651882D01*
X3385490Y-32628771D01*
X3375377Y-32606628D01*
X3375376Y-32606626D01*
X3281128Y-32497857D01*
X3160053Y-32420047D01*
X3160051Y-32420046D01*
X3160049Y-32420045D01*
X3160050Y-32420045D01*
X3021963Y-32379500D01*
X3021961Y-32379500D01*
X2878039Y-32379500D01*
X2878036Y-32379500D01*
X2739949Y-32420045D01*
X2618873Y-32497856D01*
X2524623Y-32606626D01*
X2524622Y-32606628D01*
X2464834Y-32737543D01*
X2444353Y-32880000D01*
X2464834Y-33022456D01*
X2524622Y-33153371D01*
X2524625Y-33153377D01*
X2618866Y-33262137D01*
X2618869Y-33262139D01*
X2618872Y-33262143D01*
X2649961Y-33282123D01*
X2653050Y-33284173D01*
X2996321Y-33519587D01*
X3040574Y-33549935D01*
X3058124Y-33564517D01*
X9745179Y-40251571D01*
X9745200Y-40251594D01*
X9804909Y-40311303D01*
X9838394Y-40372626D01*
X9833410Y-40442318D01*
X9791538Y-40498251D01*
X9762022Y-40514611D01*
X9617364Y-40570651D01*
X9617357Y-40570655D01*
X9443960Y-40678017D01*
X9443958Y-40678019D01*
X9293237Y-40815418D01*
X9170327Y-40978178D01*
X9079422Y-41160739D01*
X9079417Y-41160752D01*
X9023602Y-41356917D01*
X9004785Y-41559999D01*
X9004785Y-41560000D01*
X9023602Y-41763082D01*
X9079417Y-41959247D01*
X9079422Y-41959260D01*
X9170327Y-42141821D01*
X9293237Y-42304581D01*
X9443958Y-42441980D01*
X9448535Y-42445437D01*
X9447231Y-42447163D01*
X9487509Y-42492093D01*
X9498618Y-42561074D01*
X9470670Y-42625110D01*
X9412537Y-42663871D01*
X9375600Y-42669500D01*
X8304400Y-42669500D01*
X8237361Y-42649815D01*
X8191606Y-42597011D01*
X8181662Y-42527853D01*
X8210687Y-42464297D01*
X8231998Y-42446143D01*
X8231465Y-42445437D01*
X8236033Y-42441985D01*
X8236041Y-42441981D01*
X8386764Y-42304579D01*
X8509673Y-42141821D01*
X8600582Y-41959250D01*
X8656397Y-41763083D01*
X8675215Y-41560000D01*
X8674846Y-41556023D01*
X8656397Y-41356917D01*
X8619834Y-41228414D01*
X8600582Y-41160750D01*
X8598722Y-41157015D01*
X8514507Y-40987888D01*
X8509673Y-40978179D01*
X8386764Y-40815421D01*
X8386762Y-40815418D01*
X8236041Y-40678019D01*
X8236039Y-40678017D01*
X8062642Y-40570655D01*
X8062639Y-40570653D01*
X8062637Y-40570652D01*
X8062636Y-40570651D01*
X8062635Y-40570651D01*
X7953654Y-40528432D01*
X7872456Y-40496976D01*
X7671976Y-40459500D01*
X7468024Y-40459500D01*
X7267544Y-40496976D01*
X7267541Y-40496976D01*
X7267541Y-40496977D01*
X7077364Y-40570651D01*
X7077357Y-40570655D01*
X6903960Y-40678017D01*
X6903958Y-40678019D01*
X6753237Y-40815418D01*
X6630327Y-40978178D01*
X6539422Y-41160739D01*
X6539417Y-41160752D01*
X6483602Y-41356917D01*
X6464785Y-41559999D01*
X6464785Y-41560000D01*
X6483602Y-41763082D01*
X6539417Y-41959247D01*
X6539422Y-41959260D01*
X6630327Y-42141821D01*
X6753237Y-42304581D01*
X6903958Y-42441980D01*
X6908535Y-42445437D01*
X6907231Y-42447163D01*
X6947509Y-42492093D01*
X6958618Y-42561074D01*
X6930670Y-42625110D01*
X6872537Y-42663871D01*
X6835600Y-42669500D01*
X5764400Y-42669500D01*
X5697361Y-42649815D01*
X5651606Y-42597011D01*
X5641662Y-42527853D01*
X5670687Y-42464297D01*
X5691998Y-42446143D01*
X5691465Y-42445437D01*
X5696033Y-42441985D01*
X5696041Y-42441981D01*
X5846764Y-42304579D01*
X5969673Y-42141821D01*
X6060582Y-41959250D01*
X6116397Y-41763083D01*
X6135215Y-41560000D01*
X6134846Y-41556023D01*
X6116397Y-41356917D01*
X6079834Y-41228414D01*
X6060582Y-41160750D01*
X6058722Y-41157015D01*
X5974507Y-40987888D01*
X5969673Y-40978179D01*
X5846764Y-40815421D01*
X5846762Y-40815418D01*
X5696041Y-40678019D01*
X5696039Y-40678017D01*
X5522642Y-40570655D01*
X5522639Y-40570653D01*
X5522637Y-40570652D01*
X5522636Y-40570651D01*
X5522635Y-40570651D01*
X5413654Y-40528432D01*
X5332456Y-40496976D01*
X5131976Y-40459500D01*
X4928024Y-40459500D01*
X4727544Y-40496976D01*
X4727541Y-40496976D01*
X4727541Y-40496977D01*
X4537364Y-40570651D01*
X4537357Y-40570655D01*
X4363960Y-40678017D01*
X4363958Y-40678019D01*
X4213237Y-40815418D01*
X4090327Y-40978178D01*
X3999422Y-41160739D01*
X3999417Y-41160752D01*
X3943602Y-41356917D01*
X3924785Y-41559999D01*
X3924785Y-41560000D01*
X3943602Y-41763082D01*
X3999417Y-41959247D01*
X3999422Y-41959260D01*
X4090327Y-42141821D01*
X4213237Y-42304581D01*
X4363958Y-42441980D01*
X4368535Y-42445437D01*
X4367231Y-42447163D01*
X4407509Y-42492093D01*
X4418618Y-42561074D01*
X4390670Y-42625110D01*
X4332537Y-42663871D01*
X4295600Y-42669500D01*
X3694542Y-42669500D01*
X3627503Y-42649815D01*
X3581748Y-42597011D01*
X3571804Y-42527853D01*
X3574012Y-42519804D01*
X3573584Y-42519719D01*
X3588359Y-42445437D01*
X3590500Y-42434674D01*
X3590500Y-40685326D01*
X3590500Y-40685323D01*
X3590499Y-40685321D01*
X3575967Y-40612264D01*
X3575966Y-40612260D01*
X3567788Y-40600021D01*
X3520601Y-40529399D01*
X3437740Y-40474034D01*
X3437739Y-40474033D01*
X3437735Y-40474032D01*
X3364677Y-40459500D01*
X3364674Y-40459500D01*
X1615326Y-40459500D01*
X1615323Y-40459500D01*
X1542264Y-40474032D01*
X1542260Y-40474033D01*
X1459399Y-40529399D01*
X1404033Y-40612260D01*
X1404032Y-40612264D01*
X1389500Y-40685321D01*
X1389500Y-42434678D01*
X1406416Y-42519719D01*
X1402431Y-42520511D01*
X1407493Y-42567490D01*
X1376231Y-42629976D01*
X1316150Y-42665642D01*
X1285458Y-42669500D01*
X2706Y-42669500D01*
X-2703Y-42669382D01*
X-408540Y-42651663D01*
X-419315Y-42650720D01*
X-629685Y-42623024D01*
X-819371Y-42598051D01*
X-830023Y-42596173D01*
X-1174505Y-42519804D01*
X-1223978Y-42508836D01*
X-1234421Y-42506038D01*
X-1619267Y-42384696D01*
X-1629430Y-42380997D01*
X-2002227Y-42226579D01*
X-2012031Y-42222007D01*
X-2369943Y-42035690D01*
X-2379311Y-42030282D01*
X-2719639Y-41813469D01*
X-2728500Y-41807264D01*
X-3048628Y-41561621D01*
X-3056915Y-41554667D01*
X-3354413Y-41282061D01*
X-3362062Y-41274412D01*
X-3634668Y-40976914D01*
X-3641622Y-40968627D01*
X-3887265Y-40648499D01*
X-3893470Y-40639638D01*
X-3906410Y-40619327D01*
X-3916357Y-40603713D01*
X-2230500Y-40603713D01*
X-2230500Y-40816286D01*
X-2205592Y-40973552D01*
X-2197246Y-41026243D01*
X-2153540Y-41160757D01*
X-2131556Y-41228414D01*
X-2035049Y-41417820D01*
X-1910110Y-41589786D01*
X-1759787Y-41740109D01*
X-1587821Y-41865048D01*
X-1587819Y-41865049D01*
X-1587816Y-41865051D01*
X-1398412Y-41961557D01*
X-1196243Y-42027246D01*
X-986287Y-42060500D01*
X-986286Y-42060500D01*
X-773714Y-42060500D01*
X-773713Y-42060500D01*
X-563757Y-42027246D01*
X-361588Y-41961557D01*
X-172184Y-41865051D01*
X-92646Y-41807264D01*
X-214Y-41740109D01*
X-212Y-41740106D01*
X-208Y-41740104D01*
X150104Y-41589792D01*
X150106Y-41589788D01*
X150109Y-41589786D01*
X275048Y-41417820D01*
X275047Y-41417820D01*
X275051Y-41417816D01*
X371557Y-41228412D01*
X437246Y-41026243D01*
X470500Y-40816287D01*
X470500Y-40603713D01*
X437246Y-40393757D01*
X371557Y-40191588D01*
X275051Y-40002184D01*
X275049Y-40002181D01*
X275048Y-40002179D01*
X150109Y-39830213D01*
X-214Y-39679890D01*
X-172180Y-39554951D01*
X-361586Y-39458444D01*
X-361587Y-39458443D01*
X-361588Y-39458443D01*
X-563757Y-39392754D01*
X-563759Y-39392753D01*
X-563760Y-39392753D01*
X-725043Y-39367208D01*
X-773713Y-39359500D01*
X-986287Y-39359500D01*
X-1034958Y-39367208D01*
X-1196240Y-39392753D01*
X-1398415Y-39458444D01*
X-1587821Y-39554951D01*
X-1759787Y-39679890D01*
X-1910110Y-39830213D01*
X-2035049Y-40002179D01*
X-2131556Y-40191585D01*
X-2197247Y-40393760D01*
X-2230500Y-40603713D01*
X-3916357Y-40603713D01*
X-4110284Y-40299309D01*
X-4115691Y-40289942D01*
X-4245903Y-40039806D01*
X-4302011Y-39932024D01*
X-4306580Y-39922226D01*
X-4344695Y-39830208D01*
X-4461004Y-39549414D01*
X-4464695Y-39539271D01*
X-4564797Y-39221788D01*
X-4564797Y-39221787D01*
X-4566182Y-39151931D01*
X-4529581Y-39092416D01*
X-4466613Y-39062136D01*
X-4446536Y-39060500D01*
X-2775324Y-39060500D01*
X-2775323Y-39060499D01*
X-2702260Y-39045966D01*
X-2619399Y-38990601D01*
X-2564034Y-38907740D01*
X-2549500Y-38834674D01*
X-2549500Y-37085326D01*
X-2549500Y-37085323D01*
X-2549501Y-37085321D01*
X-2564033Y-37012264D01*
X-2564034Y-37012260D01*
X-2619399Y-36929399D01*
X-2678516Y-36889899D01*
X-2702261Y-36874033D01*
X-2702265Y-36874032D01*
X-2775323Y-36859500D01*
X-2775326Y-36859500D01*
X-4524674Y-36859500D01*
X-4524677Y-36859500D01*
X-4601309Y-36874743D01*
X-4670900Y-36868516D01*
X-4726078Y-36825653D01*
X-4749322Y-36759763D01*
X-4749500Y-36753126D01*
X-4749500Y-36160141D01*
X-4729815Y-36093102D01*
X-4677011Y-36047347D01*
X-4607853Y-36037403D01*
X-4544297Y-36066428D01*
X-4526546Y-36085415D01*
X-4466766Y-36164577D01*
X-4466764Y-36164580D01*
X-4316042Y-36301980D01*
X-4316040Y-36301982D01*
X-4216859Y-36363392D01*
X-4142637Y-36409348D01*
X-3952456Y-36483024D01*
X-3751976Y-36520500D01*
X-3751974Y-36520500D01*
X-3548026Y-36520500D01*
X-3548024Y-36520500D01*
X-3347544Y-36483024D01*
X-3157363Y-36409348D01*
X-2983959Y-36301981D01*
X-2833236Y-36164579D01*
X-2710327Y-36001821D01*
X-2619418Y-35819250D01*
X-2563603Y-35623083D01*
X-2544785Y-35420000D01*
X-2547032Y-35395755D01*
X-2563603Y-35216917D01*
X-2619418Y-35020750D01*
X-2652851Y-34953608D01*
X-2670603Y-34917957D01*
X-2710327Y-34838179D01*
X-2810365Y-34705707D01*
X-2833238Y-34675418D01*
X-2983959Y-34538019D01*
X-2983961Y-34538017D01*
X-3157358Y-34430655D01*
X-3157365Y-34430651D01*
X-3278540Y-34383708D01*
X-3347544Y-34356976D01*
X-3548024Y-34319500D01*
X-3751976Y-34319500D01*
X-3952456Y-34356976D01*
X-3952459Y-34356976D01*
X-3952459Y-34356977D01*
X-4142636Y-34430651D01*
X-4142643Y-34430655D01*
X-4316040Y-34538017D01*
X-4316042Y-34538019D01*
X-4466763Y-34675418D01*
X-4526546Y-34754585D01*
X-4582655Y-34796221D01*
X-4652367Y-34800912D01*
X-4713549Y-34767170D01*
X-4746776Y-34705707D01*
X-4749500Y-34679858D01*
X-4749500Y-31080141D01*
X-4729815Y-31013102D01*
X-4677011Y-30967347D01*
X-4607853Y-30957403D01*
X-4544297Y-30986428D01*
X-4526546Y-31005415D01*
X-4466766Y-31084577D01*
X-4466764Y-31084580D01*
X-4316042Y-31221980D01*
X-4316040Y-31221982D01*
X-4216859Y-31283392D01*
X-4142637Y-31329348D01*
X-3952456Y-31403024D01*
X-3751976Y-31440500D01*
X-3751974Y-31440500D01*
X-3548026Y-31440500D01*
X-3548024Y-31440500D01*
X-3347544Y-31403024D01*
X-3256832Y-31367881D01*
X-3233628Y-31361402D01*
X-3221351Y-31359233D01*
X-3144591Y-31329344D01*
X-1910876Y-30848951D01*
X-1865883Y-30840500D01*
X4275890Y-30840500D01*
X4275892Y-30840500D01*
X4403186Y-30806392D01*
X4517314Y-30740500D01*
X8440995Y-26816819D01*
X8502318Y-26783334D01*
X8528676Y-26780500D01*
X13882324Y-26780500D01*
X13949363Y-26800185D01*
G37*
%TD.AperFunction*%
%TA.AperFunction,Conductor*%
G36*
X11398363Y-35940185D02*
G01*
X11419005Y-35956819D01*
X16114528Y-40652341D01*
X16140368Y-40690132D01*
X16705544Y-41976131D01*
X16706192Y-41977606D01*
X16708150Y-41980439D01*
X16709617Y-41982562D01*
X16718606Y-41997787D01*
X16790327Y-42141821D01*
X16913237Y-42304581D01*
X17063958Y-42441980D01*
X17068535Y-42445437D01*
X17067231Y-42447163D01*
X17107509Y-42492093D01*
X17118618Y-42561074D01*
X17090670Y-42625110D01*
X17032537Y-42663871D01*
X16995600Y-42669500D01*
X13384400Y-42669500D01*
X13317361Y-42649815D01*
X13271606Y-42597011D01*
X13261662Y-42527853D01*
X13290687Y-42464297D01*
X13311998Y-42446143D01*
X13311465Y-42445437D01*
X13316033Y-42441985D01*
X13316041Y-42441981D01*
X13466764Y-42304579D01*
X13589673Y-42141821D01*
X13680582Y-41959250D01*
X13736397Y-41763083D01*
X13755215Y-41560000D01*
X13754846Y-41556023D01*
X13736397Y-41356917D01*
X13699834Y-41228414D01*
X13680582Y-41160750D01*
X13678722Y-41157015D01*
X13594507Y-40987888D01*
X13589673Y-40978179D01*
X13466764Y-40815421D01*
X13466762Y-40815418D01*
X13316042Y-40678020D01*
X13316041Y-40678019D01*
X13254520Y-40639927D01*
X13142640Y-40570653D01*
X13082910Y-40547513D01*
X13063512Y-40537977D01*
X13055353Y-40533040D01*
X13050891Y-40530340D01*
X13050887Y-40530338D01*
X13050884Y-40530337D01*
X11705302Y-40042391D01*
X11659893Y-40013500D01*
X11335915Y-39689522D01*
X11335913Y-39689520D01*
X11290250Y-39663156D01*
X11244589Y-39636793D01*
X11193657Y-39623146D01*
X11142727Y-39609500D01*
X11142726Y-39609500D01*
X10287254Y-39609500D01*
X10220215Y-39589815D01*
X10199573Y-39573181D01*
X6928372Y-36301980D01*
X6861042Y-36234649D01*
X6827558Y-36173328D01*
X6832542Y-36103636D01*
X6874414Y-36047703D01*
X6932533Y-36024032D01*
X6937766Y-36023342D01*
X6948041Y-36021989D01*
X6963361Y-36021404D01*
X6963357Y-36021296D01*
X6969440Y-36021029D01*
X6969442Y-36021028D01*
X6969449Y-36021029D01*
X7646088Y-35924367D01*
X7646098Y-35924363D01*
X7649689Y-35923553D01*
X7677034Y-35920500D01*
X11331324Y-35920500D01*
X11398363Y-35940185D01*
G37*
%TD.AperFunction*%
%TA.AperFunction,Conductor*%
G36*
X25212638Y-26784055D02*
G01*
X25213902Y-26784363D01*
X25213912Y-26784367D01*
X25670743Y-26849627D01*
X25727605Y-26873180D01*
X26096779Y-27150062D01*
X26096785Y-27150065D01*
X26099896Y-27152029D01*
X26121396Y-27169210D01*
X34560924Y-35608738D01*
X34579256Y-35632098D01*
X34579935Y-35633218D01*
X34990045Y-36180030D01*
X35001204Y-36193878D01*
X35002249Y-36195086D01*
X35007984Y-36201269D01*
X35015432Y-36210091D01*
X35021718Y-36218282D01*
X35044163Y-36235505D01*
X35055402Y-36245917D01*
X35055476Y-36245838D01*
X35059968Y-36249953D01*
X35059972Y-36249956D01*
X35059973Y-36249957D01*
X35606779Y-36660062D01*
X35606785Y-36660065D01*
X35609896Y-36662029D01*
X35631396Y-36679210D01*
X37030005Y-38077819D01*
X37063490Y-38139142D01*
X37058506Y-38208834D01*
X37016634Y-38264767D01*
X36951170Y-38289184D01*
X36942324Y-38289500D01*
X27906544Y-38289500D01*
X27839505Y-38269815D01*
X27818863Y-38253181D01*
X24177705Y-34612023D01*
X24144220Y-34550700D01*
X24149204Y-34481008D01*
X24164744Y-34451905D01*
X24441556Y-34067334D01*
X24454953Y-34040820D01*
X24462512Y-34027873D01*
X24475966Y-34007740D01*
X24481385Y-33980500D01*
X24490499Y-33934678D01*
X24490500Y-33934676D01*
X24490500Y-33929773D01*
X24491903Y-33911807D01*
X24491891Y-33911235D01*
X24491892Y-33911232D01*
X24491891Y-33911228D01*
X24491762Y-33904838D01*
X24490500Y-33892020D01*
X24490500Y-32185323D01*
X24490499Y-32185321D01*
X24475967Y-32112264D01*
X24475966Y-32112260D01*
X24420601Y-32029399D01*
X24337740Y-31974034D01*
X24337739Y-31974033D01*
X24337735Y-31974032D01*
X24264677Y-31959500D01*
X24264674Y-31959500D01*
X22515326Y-31959500D01*
X22515323Y-31959500D01*
X22442264Y-31974032D01*
X22442260Y-31974033D01*
X22359399Y-32029399D01*
X22304033Y-32112260D01*
X22304032Y-32112264D01*
X22289500Y-32185321D01*
X22289500Y-33934678D01*
X22304032Y-34007735D01*
X22304033Y-34007739D01*
X22321659Y-34034118D01*
X22359399Y-34090601D01*
X22442260Y-34145966D01*
X22442264Y-34145967D01*
X22515321Y-34160499D01*
X22515324Y-34160500D01*
X22515326Y-34160500D01*
X22546907Y-34160500D01*
X22613946Y-34180185D01*
X22626844Y-34189705D01*
X23457481Y-34890223D01*
X23460263Y-34891836D01*
X23485744Y-34911426D01*
X27494788Y-38920470D01*
X27574712Y-38966614D01*
X27663856Y-38990500D01*
X27663857Y-38990500D01*
X27756144Y-38990500D01*
X45093456Y-38990500D01*
X45160495Y-39010185D01*
X45181137Y-39026819D01*
X46689806Y-40535488D01*
X46719715Y-40583815D01*
X46803409Y-40833895D01*
X46806018Y-40903716D01*
X46770465Y-40963864D01*
X46708037Y-40995242D01*
X46638556Y-40987888D01*
X46586865Y-40947976D01*
X46486762Y-40815418D01*
X46336041Y-40678019D01*
X46336039Y-40678017D01*
X46162642Y-40570655D01*
X46162639Y-40570653D01*
X46162637Y-40570652D01*
X46162636Y-40570651D01*
X46162635Y-40570651D01*
X46053654Y-40528432D01*
X45972456Y-40496976D01*
X45771976Y-40459500D01*
X45568024Y-40459500D01*
X45367544Y-40496976D01*
X45367541Y-40496976D01*
X45367541Y-40496977D01*
X45177364Y-40570651D01*
X45177357Y-40570655D01*
X45003960Y-40678017D01*
X45003958Y-40678019D01*
X44853237Y-40815418D01*
X44730327Y-40978178D01*
X44639422Y-41160739D01*
X44639417Y-41160752D01*
X44583602Y-41356917D01*
X44564785Y-41559999D01*
X44564785Y-41560000D01*
X44583602Y-41763082D01*
X44639417Y-41959247D01*
X44639422Y-41959260D01*
X44730327Y-42141821D01*
X44853237Y-42304581D01*
X45003958Y-42441980D01*
X45008535Y-42445437D01*
X45007231Y-42447163D01*
X45047509Y-42492093D01*
X45058618Y-42561074D01*
X45030670Y-42625110D01*
X44972537Y-42663871D01*
X44935600Y-42669500D01*
X43864400Y-42669500D01*
X43797361Y-42649815D01*
X43751606Y-42597011D01*
X43741662Y-42527853D01*
X43770687Y-42464297D01*
X43791998Y-42446143D01*
X43791465Y-42445437D01*
X43796033Y-42441985D01*
X43796041Y-42441981D01*
X43946764Y-42304579D01*
X44069673Y-42141821D01*
X44160582Y-41959250D01*
X44216397Y-41763083D01*
X44235215Y-41560000D01*
X44234846Y-41556023D01*
X44216397Y-41356917D01*
X44179834Y-41228414D01*
X44160582Y-41160750D01*
X44158722Y-41157015D01*
X44074507Y-40987888D01*
X44069673Y-40978179D01*
X43946764Y-40815421D01*
X43946762Y-40815418D01*
X43796041Y-40678019D01*
X43796039Y-40678017D01*
X43622642Y-40570655D01*
X43622639Y-40570653D01*
X43622637Y-40570652D01*
X43622636Y-40570651D01*
X43622635Y-40570651D01*
X43513654Y-40528432D01*
X43432456Y-40496976D01*
X43231976Y-40459500D01*
X43028024Y-40459500D01*
X42827544Y-40496976D01*
X42827541Y-40496976D01*
X42827541Y-40496977D01*
X42637364Y-40570651D01*
X42637357Y-40570655D01*
X42463960Y-40678017D01*
X42463958Y-40678019D01*
X42313237Y-40815418D01*
X42190327Y-40978178D01*
X42099422Y-41160739D01*
X42099417Y-41160752D01*
X42043602Y-41356917D01*
X42024785Y-41559999D01*
X42024785Y-41560000D01*
X42043602Y-41763082D01*
X42099417Y-41959247D01*
X42099422Y-41959260D01*
X42190327Y-42141821D01*
X42313237Y-42304581D01*
X42463958Y-42441980D01*
X42468535Y-42445437D01*
X42467231Y-42447163D01*
X42507509Y-42492093D01*
X42518618Y-42561074D01*
X42490670Y-42625110D01*
X42432537Y-42663871D01*
X42395600Y-42669500D01*
X41324400Y-42669500D01*
X41257361Y-42649815D01*
X41211606Y-42597011D01*
X41201662Y-42527853D01*
X41230687Y-42464297D01*
X41251998Y-42446143D01*
X41251465Y-42445437D01*
X41256033Y-42441985D01*
X41256041Y-42441981D01*
X41406764Y-42304579D01*
X41529673Y-42141821D01*
X41620582Y-41959250D01*
X41676397Y-41763083D01*
X41695215Y-41560000D01*
X41694846Y-41556023D01*
X41676397Y-41356917D01*
X41639834Y-41228414D01*
X41620582Y-41160750D01*
X41618722Y-41157015D01*
X41534507Y-40987888D01*
X41529673Y-40978179D01*
X41406764Y-40815421D01*
X41406762Y-40815418D01*
X41256041Y-40678019D01*
X41256039Y-40678017D01*
X41082642Y-40570655D01*
X41082639Y-40570653D01*
X41082637Y-40570652D01*
X41082636Y-40570651D01*
X41082635Y-40570651D01*
X40973654Y-40528432D01*
X40892456Y-40496976D01*
X40691976Y-40459500D01*
X40488024Y-40459500D01*
X40287544Y-40496976D01*
X40287541Y-40496976D01*
X40287541Y-40496977D01*
X40097364Y-40570651D01*
X40097357Y-40570655D01*
X39923960Y-40678017D01*
X39923958Y-40678019D01*
X39773237Y-40815418D01*
X39650327Y-40978178D01*
X39559422Y-41160739D01*
X39559417Y-41160752D01*
X39503602Y-41356917D01*
X39484785Y-41559999D01*
X39484785Y-41560000D01*
X39503602Y-41763082D01*
X39559417Y-41959247D01*
X39559422Y-41959260D01*
X39650327Y-42141821D01*
X39773237Y-42304581D01*
X39923958Y-42441980D01*
X39928535Y-42445437D01*
X39927231Y-42447163D01*
X39967509Y-42492093D01*
X39978618Y-42561074D01*
X39950670Y-42625110D01*
X39892537Y-42663871D01*
X39855600Y-42669500D01*
X38784400Y-42669500D01*
X38717361Y-42649815D01*
X38671606Y-42597011D01*
X38661662Y-42527853D01*
X38690687Y-42464297D01*
X38711998Y-42446143D01*
X38711465Y-42445437D01*
X38716033Y-42441985D01*
X38716041Y-42441981D01*
X38866764Y-42304579D01*
X38989673Y-42141821D01*
X39080582Y-41959250D01*
X39136397Y-41763083D01*
X39155215Y-41560000D01*
X39154846Y-41556023D01*
X39136397Y-41356917D01*
X39099834Y-41228414D01*
X39080582Y-41160750D01*
X39078722Y-41157015D01*
X38994507Y-40987888D01*
X38989673Y-40978179D01*
X38866764Y-40815421D01*
X38866762Y-40815418D01*
X38716041Y-40678019D01*
X38716039Y-40678017D01*
X38542642Y-40570655D01*
X38542639Y-40570653D01*
X38542637Y-40570652D01*
X38542636Y-40570651D01*
X38542635Y-40570651D01*
X38433654Y-40528432D01*
X38352456Y-40496976D01*
X38151976Y-40459500D01*
X37948024Y-40459500D01*
X37747544Y-40496976D01*
X37747541Y-40496976D01*
X37747541Y-40496977D01*
X37557364Y-40570651D01*
X37557357Y-40570655D01*
X37383960Y-40678017D01*
X37383958Y-40678019D01*
X37233237Y-40815418D01*
X37110327Y-40978178D01*
X37019422Y-41160739D01*
X37019417Y-41160752D01*
X36963602Y-41356917D01*
X36944785Y-41559999D01*
X36944785Y-41560000D01*
X36963602Y-41763082D01*
X37019417Y-41959247D01*
X37019422Y-41959260D01*
X37110327Y-42141821D01*
X37233237Y-42304581D01*
X37383958Y-42441980D01*
X37388535Y-42445437D01*
X37387231Y-42447163D01*
X37427509Y-42492093D01*
X37438618Y-42561074D01*
X37410670Y-42625110D01*
X37352537Y-42663871D01*
X37315600Y-42669500D01*
X36244400Y-42669500D01*
X36177361Y-42649815D01*
X36131606Y-42597011D01*
X36121662Y-42527853D01*
X36150687Y-42464297D01*
X36171998Y-42446143D01*
X36171465Y-42445437D01*
X36176033Y-42441985D01*
X36176041Y-42441981D01*
X36326764Y-42304579D01*
X36449673Y-42141821D01*
X36540582Y-41959250D01*
X36596397Y-41763083D01*
X36615215Y-41560000D01*
X36614846Y-41556023D01*
X36596397Y-41356917D01*
X36559834Y-41228414D01*
X36540582Y-41160750D01*
X36538722Y-41157015D01*
X36454507Y-40987888D01*
X36449673Y-40978179D01*
X36326764Y-40815421D01*
X36326762Y-40815418D01*
X36176041Y-40678019D01*
X36176039Y-40678017D01*
X36002642Y-40570655D01*
X36002639Y-40570653D01*
X36002637Y-40570652D01*
X36002636Y-40570651D01*
X36002635Y-40570651D01*
X35893654Y-40528432D01*
X35812456Y-40496976D01*
X35611976Y-40459500D01*
X35408024Y-40459500D01*
X35207544Y-40496976D01*
X35207541Y-40496976D01*
X35207541Y-40496977D01*
X35017364Y-40570651D01*
X35017357Y-40570655D01*
X34843960Y-40678017D01*
X34843958Y-40678019D01*
X34693237Y-40815418D01*
X34570327Y-40978178D01*
X34479422Y-41160739D01*
X34479417Y-41160752D01*
X34423602Y-41356917D01*
X34404785Y-41559999D01*
X34404785Y-41560000D01*
X34423602Y-41763082D01*
X34479417Y-41959247D01*
X34479422Y-41959260D01*
X34570327Y-42141821D01*
X34693237Y-42304581D01*
X34843958Y-42441980D01*
X34848535Y-42445437D01*
X34847231Y-42447163D01*
X34887509Y-42492093D01*
X34898618Y-42561074D01*
X34870670Y-42625110D01*
X34812537Y-42663871D01*
X34775600Y-42669500D01*
X33704400Y-42669500D01*
X33637361Y-42649815D01*
X33591606Y-42597011D01*
X33581662Y-42527853D01*
X33610687Y-42464297D01*
X33631998Y-42446143D01*
X33631465Y-42445437D01*
X33636033Y-42441985D01*
X33636041Y-42441981D01*
X33786764Y-42304579D01*
X33909673Y-42141821D01*
X34000582Y-41959250D01*
X34056397Y-41763083D01*
X34075215Y-41560000D01*
X34074846Y-41556023D01*
X34056397Y-41356917D01*
X34019834Y-41228414D01*
X34000582Y-41160750D01*
X33998722Y-41157015D01*
X33914507Y-40987888D01*
X33909673Y-40978179D01*
X33786764Y-40815421D01*
X33786762Y-40815418D01*
X33636041Y-40678019D01*
X33636039Y-40678017D01*
X33462642Y-40570655D01*
X33462639Y-40570653D01*
X33462637Y-40570652D01*
X33462636Y-40570651D01*
X33462635Y-40570651D01*
X33353654Y-40528432D01*
X33272456Y-40496976D01*
X33071976Y-40459500D01*
X32868024Y-40459500D01*
X32667544Y-40496976D01*
X32667541Y-40496976D01*
X32667541Y-40496977D01*
X32477364Y-40570651D01*
X32477357Y-40570655D01*
X32303960Y-40678017D01*
X32303958Y-40678019D01*
X32153237Y-40815418D01*
X32030327Y-40978178D01*
X31939422Y-41160739D01*
X31939417Y-41160752D01*
X31883602Y-41356917D01*
X31864785Y-41559999D01*
X31864785Y-41560000D01*
X31883602Y-41763082D01*
X31939417Y-41959247D01*
X31939422Y-41959260D01*
X32030327Y-42141821D01*
X32153237Y-42304581D01*
X32303958Y-42441980D01*
X32308535Y-42445437D01*
X32307231Y-42447163D01*
X32347509Y-42492093D01*
X32358618Y-42561074D01*
X32330670Y-42625110D01*
X32272537Y-42663871D01*
X32235600Y-42669500D01*
X31164400Y-42669500D01*
X31097361Y-42649815D01*
X31051606Y-42597011D01*
X31041662Y-42527853D01*
X31070687Y-42464297D01*
X31091998Y-42446143D01*
X31091465Y-42445437D01*
X31096033Y-42441985D01*
X31096041Y-42441981D01*
X31246764Y-42304579D01*
X31369673Y-42141821D01*
X31460582Y-41959250D01*
X31516397Y-41763083D01*
X31535215Y-41560000D01*
X31534846Y-41556023D01*
X31516397Y-41356917D01*
X31479834Y-41228414D01*
X31460582Y-41160750D01*
X31458722Y-41157015D01*
X31374507Y-40987888D01*
X31369673Y-40978179D01*
X31246764Y-40815421D01*
X31246762Y-40815418D01*
X31096041Y-40678019D01*
X31096039Y-40678017D01*
X30922642Y-40570655D01*
X30922639Y-40570653D01*
X30922637Y-40570652D01*
X30922636Y-40570651D01*
X30922635Y-40570651D01*
X30813654Y-40528432D01*
X30732456Y-40496976D01*
X30531976Y-40459500D01*
X30328024Y-40459500D01*
X30127544Y-40496976D01*
X30127541Y-40496976D01*
X30127541Y-40496977D01*
X29937364Y-40570651D01*
X29937357Y-40570655D01*
X29763960Y-40678017D01*
X29763958Y-40678019D01*
X29613237Y-40815418D01*
X29490327Y-40978178D01*
X29399422Y-41160739D01*
X29399417Y-41160752D01*
X29343602Y-41356917D01*
X29324785Y-41559999D01*
X29324785Y-41560000D01*
X29343602Y-41763082D01*
X29399417Y-41959247D01*
X29399422Y-41959260D01*
X29490327Y-42141821D01*
X29613237Y-42304581D01*
X29763958Y-42441980D01*
X29768535Y-42445437D01*
X29767231Y-42447163D01*
X29807509Y-42492093D01*
X29818618Y-42561074D01*
X29790670Y-42625110D01*
X29732537Y-42663871D01*
X29695600Y-42669500D01*
X28624400Y-42669500D01*
X28557361Y-42649815D01*
X28511606Y-42597011D01*
X28501662Y-42527853D01*
X28530687Y-42464297D01*
X28551998Y-42446143D01*
X28551465Y-42445437D01*
X28556033Y-42441985D01*
X28556041Y-42441981D01*
X28706764Y-42304579D01*
X28829673Y-42141821D01*
X28920582Y-41959250D01*
X28976397Y-41763083D01*
X28995215Y-41560000D01*
X28994846Y-41556023D01*
X28976397Y-41356917D01*
X28939834Y-41228414D01*
X28920582Y-41160750D01*
X28918722Y-41157015D01*
X28834507Y-40987888D01*
X28829673Y-40978179D01*
X28706764Y-40815421D01*
X28706762Y-40815418D01*
X28556041Y-40678019D01*
X28556039Y-40678017D01*
X28382642Y-40570655D01*
X28382639Y-40570653D01*
X28382637Y-40570652D01*
X28382636Y-40570651D01*
X28382635Y-40570651D01*
X28273654Y-40528432D01*
X28192456Y-40496976D01*
X27991976Y-40459500D01*
X27788024Y-40459500D01*
X27587544Y-40496976D01*
X27587541Y-40496976D01*
X27587541Y-40496977D01*
X27397364Y-40570651D01*
X27397357Y-40570655D01*
X27223960Y-40678017D01*
X27223958Y-40678019D01*
X27073237Y-40815418D01*
X26950327Y-40978178D01*
X26859422Y-41160739D01*
X26859417Y-41160752D01*
X26803602Y-41356917D01*
X26784785Y-41559999D01*
X26784785Y-41560000D01*
X26803602Y-41763082D01*
X26859417Y-41959247D01*
X26859422Y-41959260D01*
X26950327Y-42141821D01*
X27073237Y-42304581D01*
X27223958Y-42441980D01*
X27228535Y-42445437D01*
X27227231Y-42447163D01*
X27267509Y-42492093D01*
X27278618Y-42561074D01*
X27250670Y-42625110D01*
X27192537Y-42663871D01*
X27155600Y-42669500D01*
X26084400Y-42669500D01*
X26017361Y-42649815D01*
X25971606Y-42597011D01*
X25961662Y-42527853D01*
X25990687Y-42464297D01*
X26011998Y-42446143D01*
X26011465Y-42445437D01*
X26016033Y-42441985D01*
X26016041Y-42441981D01*
X26166764Y-42304579D01*
X26289673Y-42141821D01*
X26380582Y-41959250D01*
X26436397Y-41763083D01*
X26455215Y-41560000D01*
X26454846Y-41556023D01*
X26436397Y-41356917D01*
X26399834Y-41228414D01*
X26380582Y-41160750D01*
X26378722Y-41157015D01*
X26294507Y-40987888D01*
X26289673Y-40978179D01*
X26166764Y-40815421D01*
X26166762Y-40815418D01*
X26016041Y-40678019D01*
X26016039Y-40678017D01*
X25842642Y-40570655D01*
X25842639Y-40570653D01*
X25842637Y-40570652D01*
X25842636Y-40570651D01*
X25842635Y-40570651D01*
X25733654Y-40528432D01*
X25652456Y-40496976D01*
X25451976Y-40459500D01*
X25248024Y-40459500D01*
X25047544Y-40496976D01*
X25047541Y-40496976D01*
X25047541Y-40496977D01*
X24857364Y-40570651D01*
X24857357Y-40570655D01*
X24683960Y-40678017D01*
X24683958Y-40678019D01*
X24533237Y-40815418D01*
X24410327Y-40978178D01*
X24319422Y-41160739D01*
X24319417Y-41160752D01*
X24263602Y-41356917D01*
X24244785Y-41559999D01*
X24244785Y-41560000D01*
X24263602Y-41763082D01*
X24319417Y-41959247D01*
X24319422Y-41959260D01*
X24410327Y-42141821D01*
X24533237Y-42304581D01*
X24683958Y-42441980D01*
X24688535Y-42445437D01*
X24687231Y-42447163D01*
X24727509Y-42492093D01*
X24738618Y-42561074D01*
X24710670Y-42625110D01*
X24652537Y-42663871D01*
X24615600Y-42669500D01*
X23544400Y-42669500D01*
X23477361Y-42649815D01*
X23431606Y-42597011D01*
X23421662Y-42527853D01*
X23450687Y-42464297D01*
X23471998Y-42446143D01*
X23471465Y-42445437D01*
X23476033Y-42441985D01*
X23476041Y-42441981D01*
X23626764Y-42304579D01*
X23749673Y-42141821D01*
X23840582Y-41959250D01*
X23896397Y-41763083D01*
X23915215Y-41560000D01*
X23914846Y-41556023D01*
X23896397Y-41356917D01*
X23859834Y-41228414D01*
X23840582Y-41160750D01*
X23838722Y-41157015D01*
X23754507Y-40987888D01*
X23749673Y-40978179D01*
X23626764Y-40815421D01*
X23626762Y-40815418D01*
X23476041Y-40678019D01*
X23476039Y-40678017D01*
X23302642Y-40570655D01*
X23302639Y-40570653D01*
X23302637Y-40570652D01*
X23302636Y-40570651D01*
X23302635Y-40570651D01*
X23193654Y-40528432D01*
X23112456Y-40496976D01*
X22911976Y-40459500D01*
X22708024Y-40459500D01*
X22507544Y-40496976D01*
X22507541Y-40496976D01*
X22507541Y-40496977D01*
X22317364Y-40570651D01*
X22317357Y-40570655D01*
X22143960Y-40678017D01*
X22143958Y-40678019D01*
X21993237Y-40815418D01*
X21870327Y-40978178D01*
X21779422Y-41160739D01*
X21779417Y-41160752D01*
X21723602Y-41356917D01*
X21704785Y-41559999D01*
X21704785Y-41560000D01*
X21723602Y-41763082D01*
X21779417Y-41959247D01*
X21779422Y-41959260D01*
X21870327Y-42141821D01*
X21993237Y-42304581D01*
X22143958Y-42441980D01*
X22148535Y-42445437D01*
X22147231Y-42447163D01*
X22187509Y-42492093D01*
X22198618Y-42561074D01*
X22170670Y-42625110D01*
X22112537Y-42663871D01*
X22075600Y-42669500D01*
X21004400Y-42669500D01*
X20937361Y-42649815D01*
X20891606Y-42597011D01*
X20881662Y-42527853D01*
X20910687Y-42464297D01*
X20931998Y-42446143D01*
X20931465Y-42445437D01*
X20936033Y-42441985D01*
X20936041Y-42441981D01*
X21086764Y-42304579D01*
X21209673Y-42141821D01*
X21300582Y-41959250D01*
X21356397Y-41763083D01*
X21375215Y-41560000D01*
X21374846Y-41556023D01*
X21356397Y-41356917D01*
X21319834Y-41228414D01*
X21300582Y-41160750D01*
X21298722Y-41157015D01*
X21214507Y-40987888D01*
X21209673Y-40978179D01*
X21086764Y-40815421D01*
X21086762Y-40815418D01*
X20936041Y-40678019D01*
X20936039Y-40678017D01*
X20762640Y-40570653D01*
X20762634Y-40570650D01*
X20704127Y-40547985D01*
X20684228Y-40538145D01*
X20672073Y-40530712D01*
X20672073Y-40530711D01*
X20602144Y-40504987D01*
X20602137Y-40504983D01*
X19329326Y-40036757D01*
X19284456Y-40008063D01*
X13195915Y-33919522D01*
X13195913Y-33919520D01*
X13148282Y-33892020D01*
X13104589Y-33866793D01*
X13032132Y-33847379D01*
X13002727Y-33839500D01*
X13002726Y-33839500D01*
X9027986Y-33839500D01*
X8996549Y-33835449D01*
X8716227Y-33761980D01*
X8549421Y-33718262D01*
X8544488Y-33717387D01*
X8544674Y-33716337D01*
X8518622Y-33709847D01*
X8503712Y-33703671D01*
X8503710Y-33703670D01*
X8503709Y-33703670D01*
X8431854Y-33694210D01*
X8360001Y-33684750D01*
X8359999Y-33684750D01*
X8216291Y-33703670D01*
X8216287Y-33703671D01*
X8082377Y-33759137D01*
X7967379Y-33847379D01*
X7879137Y-33962377D01*
X7823671Y-34096287D01*
X7823670Y-34096291D01*
X7804750Y-34240000D01*
X7820150Y-34356976D01*
X7823670Y-34383708D01*
X7823671Y-34383712D01*
X7879137Y-34517622D01*
X7879138Y-34517624D01*
X7879139Y-34517625D01*
X7967379Y-34632621D01*
X8051443Y-34697126D01*
X8092644Y-34753552D01*
X8096799Y-34823298D01*
X8062587Y-34884219D01*
X8000869Y-34916971D01*
X7975955Y-34919500D01*
X7676841Y-34919500D01*
X7647362Y-34915945D01*
X7646090Y-34915633D01*
X7646088Y-34915633D01*
X7646085Y-34915632D01*
X7646083Y-34915632D01*
X7544145Y-34901068D01*
X7480564Y-34872100D01*
X7442737Y-34813356D01*
X7438929Y-34795851D01*
X7436358Y-34777853D01*
X7424367Y-34693912D01*
X7424365Y-34693908D01*
X7424365Y-34693902D01*
X7423551Y-34690300D01*
X7420500Y-34662964D01*
X7420500Y-33636839D01*
X7424057Y-33607353D01*
X7424365Y-33606093D01*
X7424367Y-33606088D01*
X7438929Y-33504144D01*
X7467895Y-33440566D01*
X7526638Y-33402738D01*
X7544142Y-33398929D01*
X7646088Y-33384367D01*
X7646103Y-33384362D01*
X7649685Y-33383553D01*
X7677033Y-33380500D01*
X8855890Y-33380500D01*
X8855892Y-33380500D01*
X8983186Y-33346392D01*
X9097314Y-33280500D01*
X15058356Y-27319456D01*
X15079080Y-27302770D01*
X15634272Y-26946650D01*
X15673679Y-26930122D01*
X16239873Y-26801179D01*
X16317081Y-26783596D01*
X16344615Y-26780500D01*
X25183159Y-26780500D01*
X25212638Y-26784055D01*
G37*
%TD.AperFunction*%
%TA.AperFunction,Conductor*%
G36*
X57812539Y-38480185D02*
G01*
X57858294Y-38532989D01*
X57869500Y-38584500D01*
X57869500Y-39775879D01*
X57861049Y-39820872D01*
X57350766Y-41131350D01*
X57349575Y-41135555D01*
X57341277Y-41157015D01*
X57339419Y-41160745D01*
X57339415Y-41160757D01*
X57283603Y-41356915D01*
X57283602Y-41356917D01*
X57264785Y-41559999D01*
X57264785Y-41560000D01*
X57283602Y-41763082D01*
X57339417Y-41959247D01*
X57339422Y-41959260D01*
X57430327Y-42141821D01*
X57553237Y-42304581D01*
X57703958Y-42441980D01*
X57708535Y-42445437D01*
X57707231Y-42447163D01*
X57747509Y-42492093D01*
X57758618Y-42561074D01*
X57730670Y-42625110D01*
X57672537Y-42663871D01*
X57635600Y-42669500D01*
X54024400Y-42669500D01*
X53957361Y-42649815D01*
X53911606Y-42597011D01*
X53901662Y-42527853D01*
X53930687Y-42464297D01*
X53951998Y-42446143D01*
X53951465Y-42445437D01*
X53956033Y-42441985D01*
X53956041Y-42441981D01*
X54106764Y-42304579D01*
X54229673Y-42141821D01*
X54320582Y-41959250D01*
X54376397Y-41763083D01*
X54395215Y-41560000D01*
X54394846Y-41556023D01*
X54376397Y-41356917D01*
X54339834Y-41228414D01*
X54320582Y-41160750D01*
X54318722Y-41157015D01*
X54234507Y-40987888D01*
X54229673Y-40978179D01*
X54106764Y-40815421D01*
X54106762Y-40815418D01*
X53956041Y-40678019D01*
X53956039Y-40678017D01*
X53782642Y-40570655D01*
X53782639Y-40570653D01*
X53782637Y-40570652D01*
X53782636Y-40570651D01*
X53782635Y-40570651D01*
X53673654Y-40528432D01*
X53592456Y-40496976D01*
X53391976Y-40459500D01*
X53188024Y-40459500D01*
X52987544Y-40496976D01*
X52987541Y-40496976D01*
X52987541Y-40496977D01*
X52797364Y-40570651D01*
X52797357Y-40570655D01*
X52623960Y-40678017D01*
X52623958Y-40678019D01*
X52473237Y-40815418D01*
X52350327Y-40978178D01*
X52259422Y-41160739D01*
X52259417Y-41160752D01*
X52203602Y-41356917D01*
X52184785Y-41559999D01*
X52184785Y-41560000D01*
X52203602Y-41763082D01*
X52259417Y-41959247D01*
X52259422Y-41959260D01*
X52350327Y-42141821D01*
X52473237Y-42304581D01*
X52623958Y-42441980D01*
X52628535Y-42445437D01*
X52627231Y-42447163D01*
X52667509Y-42492093D01*
X52678618Y-42561074D01*
X52650670Y-42625110D01*
X52592537Y-42663871D01*
X52555600Y-42669500D01*
X51484400Y-42669500D01*
X51417361Y-42649815D01*
X51371606Y-42597011D01*
X51361662Y-42527853D01*
X51390687Y-42464297D01*
X51411998Y-42446143D01*
X51411465Y-42445437D01*
X51416033Y-42441985D01*
X51416041Y-42441981D01*
X51566764Y-42304579D01*
X51689673Y-42141821D01*
X51780582Y-41959250D01*
X51836397Y-41763083D01*
X51855215Y-41560000D01*
X51854846Y-41556023D01*
X51836397Y-41356917D01*
X51799834Y-41228414D01*
X51780582Y-41160750D01*
X51778722Y-41157015D01*
X51694507Y-40987888D01*
X51689673Y-40978179D01*
X51566764Y-40815421D01*
X51566762Y-40815418D01*
X51416041Y-40678019D01*
X51416039Y-40678017D01*
X51242642Y-40570655D01*
X51242639Y-40570653D01*
X51242637Y-40570652D01*
X51242636Y-40570651D01*
X51242635Y-40570651D01*
X51133654Y-40528432D01*
X51052456Y-40496976D01*
X50851976Y-40459500D01*
X50648024Y-40459500D01*
X50447544Y-40496976D01*
X50447541Y-40496976D01*
X50447541Y-40496977D01*
X50257364Y-40570651D01*
X50257357Y-40570655D01*
X50083960Y-40678017D01*
X50083958Y-40678019D01*
X49933237Y-40815418D01*
X49810327Y-40978178D01*
X49719422Y-41160739D01*
X49719417Y-41160752D01*
X49663602Y-41356917D01*
X49644785Y-41559999D01*
X49644785Y-41560000D01*
X49663602Y-41763082D01*
X49719417Y-41959247D01*
X49719422Y-41959260D01*
X49810327Y-42141821D01*
X49933237Y-42304581D01*
X50083958Y-42441980D01*
X50088535Y-42445437D01*
X50087231Y-42447163D01*
X50127509Y-42492093D01*
X50138618Y-42561074D01*
X50110670Y-42625110D01*
X50052537Y-42663871D01*
X50015600Y-42669500D01*
X48944400Y-42669500D01*
X48877361Y-42649815D01*
X48831606Y-42597011D01*
X48821662Y-42527853D01*
X48850687Y-42464297D01*
X48871998Y-42446143D01*
X48871465Y-42445437D01*
X48876033Y-42441985D01*
X48876041Y-42441981D01*
X49026764Y-42304579D01*
X49149673Y-42141821D01*
X49240582Y-41959250D01*
X49296397Y-41763083D01*
X49315215Y-41560000D01*
X49314846Y-41556023D01*
X49296397Y-41356917D01*
X49259834Y-41228414D01*
X49240582Y-41160750D01*
X49238722Y-41157015D01*
X49154507Y-40987888D01*
X49149673Y-40978179D01*
X49026764Y-40815421D01*
X49026762Y-40815418D01*
X48876041Y-40678019D01*
X48876039Y-40678017D01*
X48702640Y-40570653D01*
X48702637Y-40570652D01*
X48635922Y-40544806D01*
X48619184Y-40536836D01*
X48604481Y-40528432D01*
X48527687Y-40502731D01*
X48522253Y-40500771D01*
X48512455Y-40496975D01*
X48506946Y-40495408D01*
X48506985Y-40495269D01*
X48499874Y-40493423D01*
X47233816Y-40069715D01*
X47185488Y-40039806D01*
X45817863Y-38672181D01*
X45784378Y-38610858D01*
X45789362Y-38541166D01*
X45831234Y-38485233D01*
X45896698Y-38460816D01*
X45905544Y-38460500D01*
X57745500Y-38460500D01*
X57812539Y-38480185D01*
G37*
%TD.AperFunction*%
%TA.AperFunction,Conductor*%
G36*
X65269507Y-38480185D02*
G01*
X65273969Y-38483190D01*
X66022795Y-39011774D01*
X66022809Y-39011784D01*
X66024624Y-39013065D01*
X66050248Y-39025794D01*
X66063957Y-39033736D01*
X66082260Y-39045966D01*
X66093452Y-39048192D01*
X66097606Y-39049093D01*
X66101334Y-39049968D01*
X66101341Y-39049971D01*
X66103563Y-39050315D01*
X66108728Y-39051230D01*
X66155325Y-39060500D01*
X66155326Y-39060500D01*
X66159565Y-39060500D01*
X66178503Y-39061961D01*
X66178540Y-39061960D01*
X66178545Y-39061961D01*
X66178549Y-39061960D01*
X66184467Y-39061837D01*
X66198088Y-39060500D01*
X67836536Y-39060500D01*
X67903575Y-39080185D01*
X67949330Y-39132989D01*
X67959274Y-39202147D01*
X67954797Y-39221788D01*
X67854697Y-39539264D01*
X67850997Y-39549429D01*
X67696579Y-39922226D01*
X67692007Y-39932030D01*
X67505690Y-40289942D01*
X67500282Y-40299310D01*
X67283469Y-40639638D01*
X67277264Y-40648499D01*
X67031621Y-40968627D01*
X67024667Y-40976914D01*
X66752061Y-41274412D01*
X66744412Y-41282061D01*
X66446914Y-41554667D01*
X66438627Y-41561621D01*
X66118499Y-41807264D01*
X66109638Y-41813469D01*
X65769310Y-42030282D01*
X65759942Y-42035690D01*
X65402030Y-42222007D01*
X65392226Y-42226579D01*
X65019429Y-42380997D01*
X65009264Y-42384697D01*
X64624424Y-42506037D01*
X64613974Y-42508837D01*
X64220022Y-42596173D01*
X64209370Y-42598051D01*
X63809316Y-42650720D01*
X63798539Y-42651663D01*
X63392703Y-42669382D01*
X63387294Y-42669500D01*
X59104400Y-42669500D01*
X59037361Y-42649815D01*
X58991606Y-42597011D01*
X58981662Y-42527853D01*
X59010687Y-42464297D01*
X59031998Y-42446143D01*
X59031465Y-42445437D01*
X59036033Y-42441985D01*
X59036041Y-42441981D01*
X59186764Y-42304579D01*
X59309673Y-42141821D01*
X59400582Y-41959250D01*
X59456397Y-41763083D01*
X59475215Y-41560000D01*
X59474846Y-41556023D01*
X59456397Y-41356917D01*
X59419834Y-41228414D01*
X59400582Y-41160750D01*
X59398702Y-41156974D01*
X59390293Y-41135135D01*
X59389232Y-41131346D01*
X59183779Y-40603713D01*
X62929500Y-40603713D01*
X62929500Y-40816286D01*
X62954408Y-40973552D01*
X62962754Y-41026243D01*
X63006460Y-41160757D01*
X63028444Y-41228414D01*
X63124951Y-41417820D01*
X63249890Y-41589786D01*
X63400213Y-41740109D01*
X63572179Y-41865048D01*
X63572181Y-41865049D01*
X63572184Y-41865051D01*
X63761588Y-41961557D01*
X63963757Y-42027246D01*
X64173713Y-42060500D01*
X64173714Y-42060500D01*
X64386286Y-42060500D01*
X64386287Y-42060500D01*
X64596243Y-42027246D01*
X64798412Y-41961557D01*
X64987816Y-41865051D01*
X65067354Y-41807264D01*
X65159786Y-41740109D01*
X65159788Y-41740106D01*
X65159792Y-41740104D01*
X65310104Y-41589792D01*
X65310106Y-41589788D01*
X65310109Y-41589786D01*
X65435048Y-41417820D01*
X65435047Y-41417820D01*
X65435051Y-41417816D01*
X65531557Y-41228412D01*
X65597246Y-41026243D01*
X65630500Y-40816287D01*
X65630500Y-40603713D01*
X65597246Y-40393757D01*
X65531557Y-40191588D01*
X65435051Y-40002184D01*
X65435049Y-40002181D01*
X65435048Y-40002179D01*
X65310109Y-39830213D01*
X65159786Y-39679890D01*
X64987820Y-39554951D01*
X64798414Y-39458444D01*
X64798413Y-39458443D01*
X64798412Y-39458443D01*
X64596243Y-39392754D01*
X64596241Y-39392753D01*
X64596240Y-39392753D01*
X64434957Y-39367208D01*
X64386287Y-39359500D01*
X64173713Y-39359500D01*
X64125042Y-39367208D01*
X63963760Y-39392753D01*
X63761585Y-39458444D01*
X63572179Y-39554951D01*
X63400213Y-39679890D01*
X63249890Y-39830213D01*
X63124951Y-40002179D01*
X63028444Y-40191585D01*
X62962753Y-40393760D01*
X62929500Y-40603713D01*
X59183779Y-40603713D01*
X58878951Y-39820873D01*
X58870500Y-39775880D01*
X58870500Y-38584500D01*
X58890185Y-38517461D01*
X58942989Y-38471706D01*
X58994500Y-38460500D01*
X65202468Y-38460500D01*
X65269507Y-38480185D01*
G37*
%TD.AperFunction*%
%TA.AperFunction,Conductor*%
G36*
X12799784Y-34660185D02*
G01*
X12820426Y-34676819D01*
X18718063Y-40574456D01*
X18746758Y-40619327D01*
X18788539Y-40732904D01*
X18793209Y-40802617D01*
X18759449Y-40863789D01*
X18697976Y-40896998D01*
X18628307Y-40891700D01*
X18573208Y-40850439D01*
X18572293Y-40849228D01*
X18546764Y-40815421D01*
X18546763Y-40815420D01*
X18546763Y-40815419D01*
X18396041Y-40678019D01*
X18396039Y-40678017D01*
X18222642Y-40570655D01*
X18222640Y-40570654D01*
X18222637Y-40570652D01*
X18222634Y-40570651D01*
X18222629Y-40570648D01*
X18178873Y-40553697D01*
X18152592Y-40539679D01*
X18147606Y-40536191D01*
X16860131Y-39970367D01*
X16822340Y-39944527D01*
X11897316Y-35019502D01*
X11897315Y-35019501D01*
X11897314Y-35019500D01*
X11840250Y-34986554D01*
X11783187Y-34953608D01*
X11719539Y-34936554D01*
X11655892Y-34919500D01*
X11655891Y-34919500D01*
X8909703Y-34919500D01*
X8842664Y-34899815D01*
X8796909Y-34847011D01*
X8786965Y-34777853D01*
X8815990Y-34714297D01*
X8874768Y-34676523D01*
X8878266Y-34675551D01*
X8996547Y-34644551D01*
X9027984Y-34640500D01*
X12732745Y-34640500D01*
X12799784Y-34660185D01*
G37*
%TD.AperFunction*%
%TA.AperFunction,Conductor*%
G36*
X1352497Y-270185D02*
G01*
X1398252Y-322989D01*
X1408196Y-392147D01*
X1405987Y-400195D01*
X1406416Y-400281D01*
X1389500Y-485321D01*
X1389500Y-2234678D01*
X1404032Y-2307735D01*
X1404033Y-2307739D01*
X1404034Y-2307740D01*
X1459399Y-2390601D01*
X1542260Y-2445966D01*
X1542264Y-2445967D01*
X1615321Y-2460499D01*
X1615324Y-2460500D01*
X1615326Y-2460500D01*
X3364676Y-2460500D01*
X3364677Y-2460499D01*
X3437740Y-2445966D01*
X3520601Y-2390601D01*
X3575966Y-2307740D01*
X3590500Y-2234674D01*
X3590500Y-485326D01*
X3590500Y-485323D01*
X3590499Y-485321D01*
X3573584Y-400281D01*
X3577568Y-399488D01*
X3572507Y-352510D01*
X3603769Y-290024D01*
X3663850Y-254358D01*
X3694542Y-250500D01*
X4295600Y-250500D01*
X4362639Y-270185D01*
X4408394Y-322989D01*
X4418338Y-392147D01*
X4389313Y-455703D01*
X4368001Y-473856D01*
X4368535Y-474563D01*
X4363958Y-478019D01*
X4213237Y-615418D01*
X4090327Y-778178D01*
X3999422Y-960739D01*
X3999417Y-960752D01*
X3943602Y-1156917D01*
X3924785Y-1359999D01*
X3924785Y-1360000D01*
X3943602Y-1563082D01*
X3999417Y-1759247D01*
X3999422Y-1759260D01*
X4090327Y-1941821D01*
X4213237Y-2104581D01*
X4363958Y-2241980D01*
X4363960Y-2241982D01*
X4411634Y-2271500D01*
X4537363Y-2349348D01*
X4727544Y-2423024D01*
X4928024Y-2460500D01*
X4928026Y-2460500D01*
X5131974Y-2460500D01*
X5131976Y-2460500D01*
X5332456Y-2423024D01*
X5522637Y-2349348D01*
X5696041Y-2241981D01*
X5846764Y-2104579D01*
X5969673Y-1941821D01*
X6060582Y-1759250D01*
X6116397Y-1563083D01*
X6135215Y-1360000D01*
X6132454Y-1330208D01*
X6116397Y-1156917D01*
X6103826Y-1112735D01*
X6060582Y-960750D01*
X6059433Y-958443D01*
X6010166Y-859500D01*
X5969673Y-778179D01*
X5846764Y-615421D01*
X5846762Y-615418D01*
X5696041Y-478019D01*
X5691465Y-474563D01*
X5692768Y-472836D01*
X5652491Y-427907D01*
X5641382Y-358926D01*
X5669330Y-294890D01*
X5727463Y-256129D01*
X5764400Y-250500D01*
X6835600Y-250500D01*
X6902639Y-270185D01*
X6948394Y-322989D01*
X6958338Y-392147D01*
X6929313Y-455703D01*
X6908001Y-473856D01*
X6908535Y-474563D01*
X6903958Y-478019D01*
X6753237Y-615418D01*
X6630327Y-778178D01*
X6539422Y-960739D01*
X6539417Y-960752D01*
X6483602Y-1156917D01*
X6464785Y-1359999D01*
X6464785Y-1360000D01*
X6483602Y-1563082D01*
X6539417Y-1759247D01*
X6539422Y-1759260D01*
X6630327Y-1941821D01*
X6753237Y-2104581D01*
X6903958Y-2241980D01*
X6903960Y-2241982D01*
X6951634Y-2271500D01*
X7077363Y-2349348D01*
X7267544Y-2423024D01*
X7468024Y-2460500D01*
X7468026Y-2460500D01*
X7671974Y-2460500D01*
X7671976Y-2460500D01*
X7872456Y-2423024D01*
X8062637Y-2349348D01*
X8236041Y-2241981D01*
X8386764Y-2104579D01*
X8509673Y-1941821D01*
X8600582Y-1759250D01*
X8656397Y-1563083D01*
X8675215Y-1360000D01*
X8672454Y-1330208D01*
X8656397Y-1156917D01*
X8643826Y-1112735D01*
X8600582Y-960750D01*
X8599433Y-958443D01*
X8550166Y-859500D01*
X8509673Y-778179D01*
X8386764Y-615421D01*
X8386762Y-615418D01*
X8236041Y-478019D01*
X8231465Y-474563D01*
X8232768Y-472836D01*
X8192491Y-427907D01*
X8181382Y-358926D01*
X8209330Y-294890D01*
X8267463Y-256129D01*
X8304400Y-250500D01*
X9375600Y-250500D01*
X9442639Y-270185D01*
X9488394Y-322989D01*
X9498338Y-392147D01*
X9469313Y-455703D01*
X9448001Y-473856D01*
X9448535Y-474563D01*
X9443958Y-478019D01*
X9293237Y-615418D01*
X9170327Y-778178D01*
X9079422Y-960739D01*
X9079417Y-960752D01*
X9023602Y-1156917D01*
X9004785Y-1359999D01*
X9004785Y-1360000D01*
X9023602Y-1563082D01*
X9079417Y-1759247D01*
X9079422Y-1759260D01*
X9170327Y-1941821D01*
X9293237Y-2104581D01*
X9443958Y-2241980D01*
X9443960Y-2241982D01*
X9491634Y-2271500D01*
X9617363Y-2349348D01*
X9807544Y-2423024D01*
X10008024Y-2460500D01*
X10008026Y-2460500D01*
X10211974Y-2460500D01*
X10211976Y-2460500D01*
X10412456Y-2423024D01*
X10602637Y-2349348D01*
X10776041Y-2241981D01*
X10926764Y-2104579D01*
X11049673Y-1941821D01*
X11140582Y-1759250D01*
X11196397Y-1563083D01*
X11215215Y-1360000D01*
X11212454Y-1330208D01*
X11196397Y-1156917D01*
X11183826Y-1112735D01*
X11140582Y-960750D01*
X11139433Y-958443D01*
X11090166Y-859500D01*
X11049673Y-778179D01*
X10926764Y-615421D01*
X10926762Y-615418D01*
X10776041Y-478019D01*
X10771465Y-474563D01*
X10772768Y-472836D01*
X10732491Y-427907D01*
X10721382Y-358926D01*
X10749330Y-294890D01*
X10807463Y-256129D01*
X10844400Y-250500D01*
X11915600Y-250500D01*
X11982639Y-270185D01*
X12028394Y-322989D01*
X12038338Y-392147D01*
X12009313Y-455703D01*
X11988001Y-473856D01*
X11988535Y-474563D01*
X11983958Y-478019D01*
X11833237Y-615418D01*
X11710327Y-778178D01*
X11619422Y-960739D01*
X11619417Y-960752D01*
X11563602Y-1156917D01*
X11544785Y-1359999D01*
X11544785Y-1360000D01*
X11563602Y-1563082D01*
X11619417Y-1759247D01*
X11619422Y-1759260D01*
X11710327Y-1941821D01*
X11833237Y-2104581D01*
X11983958Y-2241980D01*
X11983960Y-2241982D01*
X12031634Y-2271500D01*
X12157363Y-2349348D01*
X12347544Y-2423024D01*
X12548024Y-2460500D01*
X12548026Y-2460500D01*
X12751974Y-2460500D01*
X12751976Y-2460500D01*
X12952456Y-2423024D01*
X13142637Y-2349348D01*
X13316041Y-2241981D01*
X13466764Y-2104579D01*
X13589673Y-1941821D01*
X13680582Y-1759250D01*
X13736397Y-1563083D01*
X13755215Y-1360000D01*
X13752454Y-1330208D01*
X13736397Y-1156917D01*
X13723826Y-1112735D01*
X13680582Y-960750D01*
X13679433Y-958443D01*
X13630166Y-859500D01*
X13589673Y-778179D01*
X13466764Y-615421D01*
X13466762Y-615418D01*
X13316041Y-478019D01*
X13311465Y-474563D01*
X13312768Y-472836D01*
X13272491Y-427907D01*
X13261382Y-358926D01*
X13289330Y-294890D01*
X13347463Y-256129D01*
X13384400Y-250500D01*
X14455600Y-250500D01*
X14522639Y-270185D01*
X14568394Y-322989D01*
X14578338Y-392147D01*
X14549313Y-455703D01*
X14528001Y-473856D01*
X14528535Y-474563D01*
X14523958Y-478019D01*
X14373237Y-615418D01*
X14250327Y-778178D01*
X14159422Y-960739D01*
X14159417Y-960752D01*
X14103602Y-1156917D01*
X14084785Y-1359999D01*
X14084785Y-1360000D01*
X14103602Y-1563082D01*
X14159417Y-1759247D01*
X14159422Y-1759260D01*
X14250327Y-1941821D01*
X14373237Y-2104581D01*
X14523958Y-2241980D01*
X14523960Y-2241982D01*
X14571634Y-2271500D01*
X14697363Y-2349348D01*
X14887544Y-2423024D01*
X15088024Y-2460500D01*
X15088026Y-2460500D01*
X15291974Y-2460500D01*
X15291976Y-2460500D01*
X15492456Y-2423024D01*
X15682637Y-2349348D01*
X15856041Y-2241981D01*
X16006764Y-2104579D01*
X16129673Y-1941821D01*
X16220582Y-1759250D01*
X16276397Y-1563083D01*
X16295215Y-1360000D01*
X16292454Y-1330208D01*
X16276397Y-1156917D01*
X16263826Y-1112735D01*
X16220582Y-960750D01*
X16219433Y-958443D01*
X16170166Y-859500D01*
X16129673Y-778179D01*
X16006764Y-615421D01*
X16006762Y-615418D01*
X15856041Y-478019D01*
X15851465Y-474563D01*
X15852768Y-472836D01*
X15812491Y-427907D01*
X15801382Y-358926D01*
X15829330Y-294890D01*
X15887463Y-256129D01*
X15924400Y-250500D01*
X16995600Y-250500D01*
X17062639Y-270185D01*
X17108394Y-322989D01*
X17118338Y-392147D01*
X17089313Y-455703D01*
X17068001Y-473856D01*
X17068535Y-474563D01*
X17063958Y-478019D01*
X16913237Y-615418D01*
X16790327Y-778178D01*
X16699422Y-960739D01*
X16699417Y-960752D01*
X16643602Y-1156917D01*
X16624785Y-1359999D01*
X16624785Y-1360000D01*
X16643602Y-1563082D01*
X16699417Y-1759247D01*
X16699422Y-1759260D01*
X16790327Y-1941821D01*
X16913237Y-2104581D01*
X17063958Y-2241980D01*
X17063960Y-2241982D01*
X17111634Y-2271500D01*
X17237363Y-2349348D01*
X17427544Y-2423024D01*
X17628024Y-2460500D01*
X17628026Y-2460500D01*
X17831974Y-2460500D01*
X17831976Y-2460500D01*
X18032456Y-2423024D01*
X18222637Y-2349348D01*
X18396041Y-2241981D01*
X18546764Y-2104579D01*
X18669673Y-1941821D01*
X18760582Y-1759250D01*
X18816397Y-1563083D01*
X18835215Y-1360000D01*
X18832454Y-1330208D01*
X18816397Y-1156917D01*
X18803826Y-1112735D01*
X18760582Y-960750D01*
X18759433Y-958443D01*
X18710166Y-859500D01*
X18669673Y-778179D01*
X18546764Y-615421D01*
X18546762Y-615418D01*
X18396041Y-478019D01*
X18391465Y-474563D01*
X18392768Y-472836D01*
X18352491Y-427907D01*
X18341382Y-358926D01*
X18369330Y-294890D01*
X18427463Y-256129D01*
X18464400Y-250500D01*
X19535600Y-250500D01*
X19602639Y-270185D01*
X19648394Y-322989D01*
X19658338Y-392147D01*
X19629313Y-455703D01*
X19608001Y-473856D01*
X19608535Y-474563D01*
X19603958Y-478019D01*
X19453237Y-615418D01*
X19330327Y-778178D01*
X19239422Y-960739D01*
X19239417Y-960752D01*
X19183602Y-1156917D01*
X19164785Y-1359999D01*
X19164785Y-1360000D01*
X19183602Y-1563082D01*
X19239417Y-1759247D01*
X19239422Y-1759260D01*
X19330327Y-1941821D01*
X19453237Y-2104581D01*
X19603958Y-2241980D01*
X19603960Y-2241982D01*
X19651634Y-2271500D01*
X19777363Y-2349348D01*
X19967544Y-2423024D01*
X20168024Y-2460500D01*
X20168026Y-2460500D01*
X20371974Y-2460500D01*
X20371976Y-2460500D01*
X20572456Y-2423024D01*
X20762637Y-2349348D01*
X20936041Y-2241981D01*
X21086764Y-2104579D01*
X21209673Y-1941821D01*
X21300582Y-1759250D01*
X21356397Y-1563083D01*
X21375215Y-1360000D01*
X21372454Y-1330208D01*
X21356397Y-1156917D01*
X21343826Y-1112735D01*
X21300582Y-960750D01*
X21299433Y-958443D01*
X21250166Y-859500D01*
X21209673Y-778179D01*
X21086764Y-615421D01*
X21086762Y-615418D01*
X20936041Y-478019D01*
X20931465Y-474563D01*
X20932768Y-472836D01*
X20892491Y-427907D01*
X20881382Y-358926D01*
X20909330Y-294890D01*
X20967463Y-256129D01*
X21004400Y-250500D01*
X22075600Y-250500D01*
X22142639Y-270185D01*
X22188394Y-322989D01*
X22198338Y-392147D01*
X22169313Y-455703D01*
X22148001Y-473856D01*
X22148535Y-474563D01*
X22143958Y-478019D01*
X21993237Y-615418D01*
X21870327Y-778178D01*
X21779422Y-960739D01*
X21779417Y-960752D01*
X21723602Y-1156917D01*
X21704785Y-1359999D01*
X21704785Y-1360000D01*
X21723602Y-1563082D01*
X21779417Y-1759247D01*
X21779422Y-1759260D01*
X21870327Y-1941821D01*
X21993237Y-2104581D01*
X22143958Y-2241980D01*
X22143960Y-2241982D01*
X22191634Y-2271500D01*
X22317363Y-2349348D01*
X22507544Y-2423024D01*
X22708024Y-2460500D01*
X22708026Y-2460500D01*
X22911974Y-2460500D01*
X22911976Y-2460500D01*
X23112456Y-2423024D01*
X23302637Y-2349348D01*
X23476041Y-2241981D01*
X23626764Y-2104579D01*
X23749673Y-1941821D01*
X23840582Y-1759250D01*
X23896397Y-1563083D01*
X23915215Y-1360000D01*
X23912454Y-1330208D01*
X23896397Y-1156917D01*
X23883826Y-1112735D01*
X23840582Y-960750D01*
X23839433Y-958443D01*
X23790166Y-859500D01*
X23749673Y-778179D01*
X23626764Y-615421D01*
X23626762Y-615418D01*
X23476041Y-478019D01*
X23471465Y-474563D01*
X23472768Y-472836D01*
X23432491Y-427907D01*
X23421382Y-358926D01*
X23449330Y-294890D01*
X23507463Y-256129D01*
X23544400Y-250500D01*
X24615600Y-250500D01*
X24682639Y-270185D01*
X24728394Y-322989D01*
X24738338Y-392147D01*
X24709313Y-455703D01*
X24688001Y-473856D01*
X24688535Y-474563D01*
X24683958Y-478019D01*
X24533237Y-615418D01*
X24410327Y-778178D01*
X24319422Y-960739D01*
X24319417Y-960752D01*
X24263602Y-1156917D01*
X24244785Y-1359999D01*
X24244785Y-1360000D01*
X24263602Y-1563082D01*
X24319417Y-1759247D01*
X24319422Y-1759260D01*
X24410327Y-1941821D01*
X24533237Y-2104581D01*
X24683958Y-2241980D01*
X24683960Y-2241982D01*
X24731634Y-2271500D01*
X24857363Y-2349348D01*
X25047544Y-2423024D01*
X25248024Y-2460500D01*
X25248026Y-2460500D01*
X25451974Y-2460500D01*
X25451976Y-2460500D01*
X25652456Y-2423024D01*
X25842637Y-2349348D01*
X26016041Y-2241981D01*
X26166764Y-2104579D01*
X26289673Y-1941821D01*
X26380582Y-1759250D01*
X26436397Y-1563083D01*
X26455215Y-1360000D01*
X26452454Y-1330208D01*
X26436397Y-1156917D01*
X26423826Y-1112735D01*
X26380582Y-960750D01*
X26379433Y-958443D01*
X26330166Y-859500D01*
X26289673Y-778179D01*
X26166764Y-615421D01*
X26166762Y-615418D01*
X26016041Y-478019D01*
X26011465Y-474563D01*
X26012768Y-472836D01*
X25972491Y-427907D01*
X25961382Y-358926D01*
X25989330Y-294890D01*
X26047463Y-256129D01*
X26084400Y-250500D01*
X29695600Y-250500D01*
X29762639Y-270185D01*
X29808394Y-322989D01*
X29818338Y-392147D01*
X29789313Y-455703D01*
X29768001Y-473856D01*
X29768535Y-474563D01*
X29763958Y-478019D01*
X29613237Y-615418D01*
X29490327Y-778178D01*
X29399422Y-960739D01*
X29399417Y-960752D01*
X29343602Y-1156917D01*
X29324785Y-1359999D01*
X29324785Y-1360000D01*
X29343602Y-1563082D01*
X29399417Y-1759247D01*
X29399422Y-1759260D01*
X29490327Y-1941821D01*
X29613237Y-2104581D01*
X29763958Y-2241980D01*
X29763960Y-2241982D01*
X29811634Y-2271500D01*
X29937363Y-2349348D01*
X30127544Y-2423024D01*
X30328024Y-2460500D01*
X30328026Y-2460500D01*
X30531974Y-2460500D01*
X30531976Y-2460500D01*
X30732456Y-2423024D01*
X30922637Y-2349348D01*
X31096041Y-2241981D01*
X31246764Y-2104579D01*
X31369673Y-1941821D01*
X31460582Y-1759250D01*
X31516397Y-1563083D01*
X31535215Y-1360000D01*
X31532454Y-1330208D01*
X31516397Y-1156917D01*
X31503826Y-1112735D01*
X31460582Y-960750D01*
X31459433Y-958443D01*
X31410166Y-859500D01*
X31369673Y-778179D01*
X31246764Y-615421D01*
X31246762Y-615418D01*
X31096041Y-478019D01*
X31091465Y-474563D01*
X31092768Y-472836D01*
X31052491Y-427907D01*
X31041382Y-358926D01*
X31069330Y-294890D01*
X31127463Y-256129D01*
X31164400Y-250500D01*
X32235600Y-250500D01*
X32302639Y-270185D01*
X32348394Y-322989D01*
X32358338Y-392147D01*
X32329313Y-455703D01*
X32308001Y-473856D01*
X32308535Y-474563D01*
X32303958Y-478019D01*
X32153237Y-615418D01*
X32030327Y-778178D01*
X31939422Y-960739D01*
X31939417Y-960752D01*
X31883602Y-1156917D01*
X31864785Y-1359999D01*
X31864785Y-1360000D01*
X31883602Y-1563082D01*
X31939417Y-1759247D01*
X31939422Y-1759260D01*
X32030327Y-1941821D01*
X32153237Y-2104581D01*
X32303958Y-2241980D01*
X32303960Y-2241982D01*
X32351634Y-2271500D01*
X32477363Y-2349348D01*
X32667544Y-2423024D01*
X32868024Y-2460500D01*
X32868026Y-2460500D01*
X33071974Y-2460500D01*
X33071976Y-2460500D01*
X33272456Y-2423024D01*
X33462637Y-2349348D01*
X33636041Y-2241981D01*
X33786764Y-2104579D01*
X33909673Y-1941821D01*
X34000582Y-1759250D01*
X34056397Y-1563083D01*
X34075215Y-1360000D01*
X34072454Y-1330208D01*
X34056397Y-1156917D01*
X34043826Y-1112735D01*
X34000582Y-960750D01*
X33999433Y-958443D01*
X33950166Y-859500D01*
X33909673Y-778179D01*
X33786764Y-615421D01*
X33786762Y-615418D01*
X33636041Y-478019D01*
X33631465Y-474563D01*
X33632768Y-472836D01*
X33592491Y-427907D01*
X33581382Y-358926D01*
X33609330Y-294890D01*
X33667463Y-256129D01*
X33704400Y-250500D01*
X34775600Y-250500D01*
X34842639Y-270185D01*
X34888394Y-322989D01*
X34898338Y-392147D01*
X34869313Y-455703D01*
X34848001Y-473856D01*
X34848535Y-474563D01*
X34843958Y-478019D01*
X34693237Y-615418D01*
X34570327Y-778178D01*
X34479422Y-960739D01*
X34479417Y-960752D01*
X34423602Y-1156917D01*
X34404785Y-1359999D01*
X34404785Y-1360000D01*
X34423602Y-1563082D01*
X34479417Y-1759247D01*
X34479422Y-1759260D01*
X34570327Y-1941821D01*
X34693237Y-2104581D01*
X34843958Y-2241980D01*
X34843960Y-2241982D01*
X34891634Y-2271500D01*
X35017363Y-2349348D01*
X35207544Y-2423024D01*
X35408024Y-2460500D01*
X35408026Y-2460500D01*
X35611974Y-2460500D01*
X35611976Y-2460500D01*
X35812456Y-2423024D01*
X36002637Y-2349348D01*
X36176041Y-2241981D01*
X36326764Y-2104579D01*
X36449673Y-1941821D01*
X36540582Y-1759250D01*
X36596397Y-1563083D01*
X36615215Y-1360000D01*
X36612454Y-1330208D01*
X36596397Y-1156917D01*
X36583826Y-1112735D01*
X36540582Y-960750D01*
X36539433Y-958443D01*
X36490166Y-859500D01*
X36449673Y-778179D01*
X36326764Y-615421D01*
X36326762Y-615418D01*
X36176041Y-478019D01*
X36171465Y-474563D01*
X36172768Y-472836D01*
X36132491Y-427907D01*
X36121382Y-358926D01*
X36149330Y-294890D01*
X36207463Y-256129D01*
X36244400Y-250500D01*
X37315600Y-250500D01*
X37382639Y-270185D01*
X37428394Y-322989D01*
X37438338Y-392147D01*
X37409313Y-455703D01*
X37388001Y-473856D01*
X37388535Y-474563D01*
X37383958Y-478019D01*
X37233237Y-615418D01*
X37110327Y-778178D01*
X37019422Y-960739D01*
X37019417Y-960752D01*
X36963602Y-1156917D01*
X36944785Y-1359999D01*
X36944785Y-1360000D01*
X36963602Y-1563082D01*
X37019417Y-1759247D01*
X37019422Y-1759260D01*
X37110327Y-1941821D01*
X37233237Y-2104581D01*
X37383958Y-2241980D01*
X37383960Y-2241982D01*
X37431634Y-2271500D01*
X37557363Y-2349348D01*
X37747544Y-2423024D01*
X37948024Y-2460500D01*
X37948026Y-2460500D01*
X38151974Y-2460500D01*
X38151976Y-2460500D01*
X38352456Y-2423024D01*
X38542637Y-2349348D01*
X38716041Y-2241981D01*
X38866764Y-2104579D01*
X38989673Y-1941821D01*
X39080582Y-1759250D01*
X39136397Y-1563083D01*
X39155215Y-1360000D01*
X39152454Y-1330208D01*
X39136397Y-1156917D01*
X39123826Y-1112735D01*
X39080582Y-960750D01*
X39079433Y-958443D01*
X39030166Y-859500D01*
X38989673Y-778179D01*
X38866764Y-615421D01*
X38866762Y-615418D01*
X38716041Y-478019D01*
X38711465Y-474563D01*
X38712768Y-472836D01*
X38672491Y-427907D01*
X38661382Y-358926D01*
X38689330Y-294890D01*
X38747463Y-256129D01*
X38784400Y-250500D01*
X39855600Y-250500D01*
X39922639Y-270185D01*
X39968394Y-322989D01*
X39978338Y-392147D01*
X39949313Y-455703D01*
X39928001Y-473856D01*
X39928535Y-474563D01*
X39923958Y-478019D01*
X39773237Y-615418D01*
X39650327Y-778178D01*
X39559422Y-960739D01*
X39559417Y-960752D01*
X39503602Y-1156917D01*
X39484785Y-1359999D01*
X39484785Y-1360000D01*
X39503602Y-1563082D01*
X39559417Y-1759247D01*
X39559422Y-1759260D01*
X39650327Y-1941821D01*
X39773237Y-2104581D01*
X39923958Y-2241980D01*
X39923960Y-2241982D01*
X39971634Y-2271500D01*
X40097363Y-2349348D01*
X40287544Y-2423024D01*
X40488024Y-2460500D01*
X40488026Y-2460500D01*
X40691974Y-2460500D01*
X40691976Y-2460500D01*
X40892456Y-2423024D01*
X41082637Y-2349348D01*
X41256041Y-2241981D01*
X41406764Y-2104579D01*
X41529673Y-1941821D01*
X41620582Y-1759250D01*
X41676397Y-1563083D01*
X41695215Y-1360000D01*
X41692454Y-1330208D01*
X41676397Y-1156917D01*
X41663826Y-1112735D01*
X41620582Y-960750D01*
X41619433Y-958443D01*
X41570166Y-859500D01*
X41529673Y-778179D01*
X41406764Y-615421D01*
X41406762Y-615418D01*
X41256041Y-478019D01*
X41251465Y-474563D01*
X41252768Y-472836D01*
X41212491Y-427907D01*
X41201382Y-358926D01*
X41229330Y-294890D01*
X41287463Y-256129D01*
X41324400Y-250500D01*
X42395600Y-250500D01*
X42462639Y-270185D01*
X42508394Y-322989D01*
X42518338Y-392147D01*
X42489313Y-455703D01*
X42468001Y-473856D01*
X42468535Y-474563D01*
X42463958Y-478019D01*
X42313237Y-615418D01*
X42190327Y-778178D01*
X42099422Y-960739D01*
X42099417Y-960752D01*
X42043602Y-1156917D01*
X42024785Y-1359999D01*
X42024785Y-1360000D01*
X42043602Y-1563082D01*
X42099417Y-1759247D01*
X42099422Y-1759260D01*
X42190327Y-1941821D01*
X42313237Y-2104581D01*
X42463958Y-2241980D01*
X42463960Y-2241982D01*
X42511634Y-2271500D01*
X42637363Y-2349348D01*
X42827544Y-2423024D01*
X43028024Y-2460500D01*
X43028026Y-2460500D01*
X43231974Y-2460500D01*
X43231976Y-2460500D01*
X43432456Y-2423024D01*
X43622637Y-2349348D01*
X43796041Y-2241981D01*
X43946764Y-2104579D01*
X44069673Y-1941821D01*
X44160582Y-1759250D01*
X44216397Y-1563083D01*
X44235215Y-1360000D01*
X44232454Y-1330208D01*
X44216397Y-1156917D01*
X44203826Y-1112735D01*
X44160582Y-960750D01*
X44159433Y-958443D01*
X44110166Y-859500D01*
X44069673Y-778179D01*
X43946764Y-615421D01*
X43946762Y-615418D01*
X43796041Y-478019D01*
X43791465Y-474563D01*
X43792768Y-472836D01*
X43752491Y-427907D01*
X43741382Y-358926D01*
X43769330Y-294890D01*
X43827463Y-256129D01*
X43864400Y-250500D01*
X44935600Y-250500D01*
X45002639Y-270185D01*
X45048394Y-322989D01*
X45058338Y-392147D01*
X45029313Y-455703D01*
X45008001Y-473856D01*
X45008535Y-474563D01*
X45003958Y-478019D01*
X44853237Y-615418D01*
X44730327Y-778178D01*
X44639422Y-960739D01*
X44639417Y-960752D01*
X44583602Y-1156917D01*
X44564785Y-1359999D01*
X44564785Y-1360000D01*
X44583602Y-1563082D01*
X44639417Y-1759247D01*
X44639422Y-1759260D01*
X44730327Y-1941821D01*
X44853237Y-2104581D01*
X45003958Y-2241980D01*
X45003960Y-2241982D01*
X45051634Y-2271500D01*
X45177363Y-2349348D01*
X45367544Y-2423024D01*
X45568024Y-2460500D01*
X45568026Y-2460500D01*
X45771974Y-2460500D01*
X45771976Y-2460500D01*
X45972456Y-2423024D01*
X46162637Y-2349348D01*
X46336041Y-2241981D01*
X46486764Y-2104579D01*
X46609673Y-1941821D01*
X46700582Y-1759250D01*
X46756397Y-1563083D01*
X46775215Y-1360000D01*
X46772454Y-1330208D01*
X46756397Y-1156917D01*
X46743826Y-1112735D01*
X46700582Y-960750D01*
X46699433Y-958443D01*
X46650166Y-859500D01*
X46609673Y-778179D01*
X46486764Y-615421D01*
X46486762Y-615418D01*
X46336041Y-478019D01*
X46331465Y-474563D01*
X46332768Y-472836D01*
X46292491Y-427907D01*
X46281382Y-358926D01*
X46309330Y-294890D01*
X46367463Y-256129D01*
X46404400Y-250500D01*
X47475600Y-250500D01*
X47542639Y-270185D01*
X47588394Y-322989D01*
X47598338Y-392147D01*
X47569313Y-455703D01*
X47548001Y-473856D01*
X47548535Y-474563D01*
X47543958Y-478019D01*
X47393237Y-615418D01*
X47270327Y-778178D01*
X47179422Y-960739D01*
X47179417Y-960752D01*
X47123602Y-1156917D01*
X47104785Y-1359999D01*
X47104785Y-1360000D01*
X47123602Y-1563082D01*
X47179417Y-1759247D01*
X47179422Y-1759260D01*
X47270327Y-1941821D01*
X47393237Y-2104581D01*
X47543958Y-2241980D01*
X47543960Y-2241982D01*
X47591634Y-2271500D01*
X47717363Y-2349348D01*
X47907544Y-2423024D01*
X48108024Y-2460500D01*
X48108026Y-2460500D01*
X48311974Y-2460500D01*
X48311976Y-2460500D01*
X48512456Y-2423024D01*
X48702637Y-2349348D01*
X48876041Y-2241981D01*
X49026764Y-2104579D01*
X49149673Y-1941821D01*
X49240582Y-1759250D01*
X49296397Y-1563083D01*
X49315215Y-1360000D01*
X49312454Y-1330208D01*
X49296397Y-1156917D01*
X49283826Y-1112735D01*
X49240582Y-960750D01*
X49239433Y-958443D01*
X49190166Y-859500D01*
X49149673Y-778179D01*
X49026764Y-615421D01*
X49026762Y-615418D01*
X48876041Y-478019D01*
X48871465Y-474563D01*
X48872768Y-472836D01*
X48832491Y-427907D01*
X48821382Y-358926D01*
X48849330Y-294890D01*
X48907463Y-256129D01*
X48944400Y-250500D01*
X50015600Y-250500D01*
X50082639Y-270185D01*
X50128394Y-322989D01*
X50138338Y-392147D01*
X50109313Y-455703D01*
X50088001Y-473856D01*
X50088535Y-474563D01*
X50083958Y-478019D01*
X49933237Y-615418D01*
X49810327Y-778178D01*
X49719422Y-960739D01*
X49719417Y-960752D01*
X49663602Y-1156917D01*
X49644785Y-1359999D01*
X49644785Y-1360000D01*
X49663602Y-1563082D01*
X49719417Y-1759247D01*
X49719422Y-1759260D01*
X49810327Y-1941821D01*
X49933237Y-2104581D01*
X50083958Y-2241980D01*
X50083960Y-2241982D01*
X50131634Y-2271500D01*
X50257363Y-2349348D01*
X50447544Y-2423024D01*
X50648024Y-2460500D01*
X50648026Y-2460500D01*
X50851974Y-2460500D01*
X50851976Y-2460500D01*
X51052456Y-2423024D01*
X51242637Y-2349348D01*
X51416041Y-2241981D01*
X51566764Y-2104579D01*
X51689673Y-1941821D01*
X51780582Y-1759250D01*
X51836397Y-1563083D01*
X51855215Y-1360000D01*
X51852454Y-1330208D01*
X51836397Y-1156917D01*
X51823826Y-1112735D01*
X51780582Y-960750D01*
X51779433Y-958443D01*
X51730166Y-859500D01*
X51689673Y-778179D01*
X51566764Y-615421D01*
X51566762Y-615418D01*
X51416041Y-478019D01*
X51411465Y-474563D01*
X51412768Y-472836D01*
X51372491Y-427907D01*
X51361382Y-358926D01*
X51389330Y-294890D01*
X51447463Y-256129D01*
X51484400Y-250500D01*
X52555600Y-250500D01*
X52622639Y-270185D01*
X52668394Y-322989D01*
X52678338Y-392147D01*
X52649313Y-455703D01*
X52628001Y-473856D01*
X52628535Y-474563D01*
X52623958Y-478019D01*
X52473237Y-615418D01*
X52350327Y-778178D01*
X52259422Y-960739D01*
X52259417Y-960752D01*
X52203602Y-1156917D01*
X52184785Y-1359999D01*
X52184785Y-1360000D01*
X52203602Y-1563082D01*
X52259417Y-1759247D01*
X52259422Y-1759260D01*
X52350327Y-1941821D01*
X52473237Y-2104581D01*
X52623958Y-2241980D01*
X52623960Y-2241982D01*
X52671634Y-2271500D01*
X52797363Y-2349348D01*
X52987544Y-2423024D01*
X53188024Y-2460500D01*
X53188026Y-2460500D01*
X53391974Y-2460500D01*
X53391976Y-2460500D01*
X53592456Y-2423024D01*
X53782637Y-2349348D01*
X53956041Y-2241981D01*
X54106764Y-2104579D01*
X54229673Y-1941821D01*
X54320582Y-1759250D01*
X54376397Y-1563083D01*
X54395215Y-1360000D01*
X54392454Y-1330208D01*
X54376397Y-1156917D01*
X54363826Y-1112735D01*
X54320582Y-960750D01*
X54319433Y-958443D01*
X54270166Y-859500D01*
X54229673Y-778179D01*
X54106764Y-615421D01*
X54106762Y-615418D01*
X53956041Y-478019D01*
X53951465Y-474563D01*
X53952768Y-472836D01*
X53912491Y-427907D01*
X53901382Y-358926D01*
X53929330Y-294890D01*
X53987463Y-256129D01*
X54024400Y-250500D01*
X55095600Y-250500D01*
X55162639Y-270185D01*
X55208394Y-322989D01*
X55218338Y-392147D01*
X55189313Y-455703D01*
X55168001Y-473856D01*
X55168535Y-474563D01*
X55163958Y-478019D01*
X55013237Y-615418D01*
X54890327Y-778178D01*
X54799422Y-960739D01*
X54799417Y-960752D01*
X54743602Y-1156917D01*
X54724785Y-1359999D01*
X54724785Y-1360000D01*
X54743602Y-1563082D01*
X54799417Y-1759247D01*
X54799422Y-1759260D01*
X54890327Y-1941821D01*
X55013237Y-2104581D01*
X55163958Y-2241980D01*
X55163960Y-2241982D01*
X55211634Y-2271500D01*
X55337363Y-2349348D01*
X55527544Y-2423024D01*
X55728024Y-2460500D01*
X55728026Y-2460500D01*
X55931974Y-2460500D01*
X55931976Y-2460500D01*
X56132456Y-2423024D01*
X56322637Y-2349348D01*
X56496041Y-2241981D01*
X56646764Y-2104579D01*
X56769673Y-1941821D01*
X56860582Y-1759250D01*
X56916397Y-1563083D01*
X56935215Y-1360000D01*
X56932454Y-1330208D01*
X56916397Y-1156917D01*
X56903826Y-1112735D01*
X56860582Y-960750D01*
X56859433Y-958443D01*
X56810166Y-859500D01*
X56769673Y-778179D01*
X56646764Y-615421D01*
X56646762Y-615418D01*
X56496041Y-478019D01*
X56491465Y-474563D01*
X56492768Y-472836D01*
X56452491Y-427907D01*
X56441382Y-358926D01*
X56469330Y-294890D01*
X56527463Y-256129D01*
X56564400Y-250500D01*
X57635600Y-250500D01*
X57702639Y-270185D01*
X57748394Y-322989D01*
X57758338Y-392147D01*
X57729313Y-455703D01*
X57708001Y-473856D01*
X57708535Y-474563D01*
X57703958Y-478019D01*
X57553237Y-615418D01*
X57430327Y-778178D01*
X57339422Y-960739D01*
X57339417Y-960752D01*
X57283602Y-1156917D01*
X57264785Y-1359999D01*
X57264785Y-1360000D01*
X57283602Y-1563082D01*
X57339417Y-1759247D01*
X57339422Y-1759260D01*
X57430327Y-1941821D01*
X57553237Y-2104581D01*
X57703958Y-2241980D01*
X57703960Y-2241982D01*
X57751634Y-2271500D01*
X57877363Y-2349348D01*
X58067544Y-2423024D01*
X58268024Y-2460500D01*
X58268026Y-2460500D01*
X58471974Y-2460500D01*
X58471976Y-2460500D01*
X58672456Y-2423024D01*
X58862637Y-2349348D01*
X59036041Y-2241981D01*
X59186764Y-2104579D01*
X59309673Y-1941821D01*
X59400582Y-1759250D01*
X59456397Y-1563083D01*
X59475215Y-1360000D01*
X59472454Y-1330208D01*
X59456397Y-1156917D01*
X59443826Y-1112735D01*
X59400582Y-960750D01*
X59399433Y-958443D01*
X59350166Y-859500D01*
X59309673Y-778179D01*
X59186764Y-615421D01*
X59186762Y-615418D01*
X59036041Y-478019D01*
X59031465Y-474563D01*
X59032768Y-472836D01*
X58992491Y-427907D01*
X58981382Y-358926D01*
X59009330Y-294890D01*
X59067463Y-256129D01*
X59104400Y-250500D01*
X60175600Y-250500D01*
X60242639Y-270185D01*
X60288394Y-322989D01*
X60298338Y-392147D01*
X60269313Y-455703D01*
X60248001Y-473856D01*
X60248535Y-474563D01*
X60243958Y-478019D01*
X60093237Y-615418D01*
X59970327Y-778178D01*
X59879422Y-960739D01*
X59879417Y-960752D01*
X59823602Y-1156917D01*
X59804785Y-1359999D01*
X59804785Y-1360000D01*
X59823602Y-1563082D01*
X59879417Y-1759247D01*
X59879422Y-1759260D01*
X59970327Y-1941821D01*
X60093237Y-2104581D01*
X60243958Y-2241980D01*
X60243960Y-2241982D01*
X60291634Y-2271500D01*
X60417363Y-2349348D01*
X60607544Y-2423024D01*
X60808024Y-2460500D01*
X60808026Y-2460500D01*
X61011974Y-2460500D01*
X61011976Y-2460500D01*
X61212456Y-2423024D01*
X61402637Y-2349348D01*
X61576041Y-2241981D01*
X61726764Y-2104579D01*
X61727418Y-2103713D01*
X62929500Y-2103713D01*
X62929500Y-2316286D01*
X62946405Y-2423024D01*
X62962754Y-2526243D01*
X62996485Y-2630057D01*
X63028444Y-2728414D01*
X63124951Y-2917820D01*
X63249890Y-3089786D01*
X63400213Y-3240109D01*
X63572179Y-3365048D01*
X63572181Y-3365049D01*
X63572184Y-3365051D01*
X63761588Y-3461557D01*
X63963757Y-3527246D01*
X64173713Y-3560500D01*
X64173714Y-3560500D01*
X64386286Y-3560500D01*
X64386287Y-3560500D01*
X64596243Y-3527246D01*
X64798412Y-3461557D01*
X64987816Y-3365051D01*
X65009789Y-3349086D01*
X65159786Y-3240109D01*
X65159788Y-3240106D01*
X65159792Y-3240104D01*
X65310104Y-3089792D01*
X65310106Y-3089788D01*
X65310109Y-3089786D01*
X65435048Y-2917820D01*
X65435047Y-2917820D01*
X65435051Y-2917816D01*
X65531557Y-2728412D01*
X65597246Y-2526243D01*
X65630500Y-2316287D01*
X65630500Y-2103713D01*
X65597246Y-1893757D01*
X65531557Y-1691588D01*
X65435051Y-1502184D01*
X65435049Y-1502181D01*
X65435048Y-1502179D01*
X65310109Y-1330213D01*
X65159786Y-1179890D01*
X64987820Y-1054951D01*
X64798414Y-958444D01*
X64798413Y-958443D01*
X64798412Y-958443D01*
X64596243Y-892754D01*
X64596241Y-892753D01*
X64596240Y-892753D01*
X64434957Y-867208D01*
X64386287Y-859500D01*
X64173713Y-859500D01*
X64125042Y-867208D01*
X63963760Y-892753D01*
X63761585Y-958444D01*
X63572179Y-1054951D01*
X63400213Y-1179890D01*
X63249890Y-1330213D01*
X63124951Y-1502179D01*
X63028444Y-1691585D01*
X62962753Y-1893760D01*
X62929500Y-2103713D01*
X61727418Y-2103713D01*
X61849673Y-1941821D01*
X61940582Y-1759250D01*
X61996397Y-1563083D01*
X62015215Y-1360000D01*
X62012454Y-1330208D01*
X61996397Y-1156917D01*
X61983826Y-1112735D01*
X61940582Y-960750D01*
X61939433Y-958443D01*
X61890166Y-859500D01*
X61849673Y-778179D01*
X61726764Y-615421D01*
X61726762Y-615418D01*
X61576041Y-478019D01*
X61571465Y-474563D01*
X61572768Y-472836D01*
X61532491Y-427907D01*
X61521382Y-358926D01*
X61549330Y-294890D01*
X61607463Y-256129D01*
X61644400Y-250500D01*
X63345830Y-250500D01*
X63387294Y-250500D01*
X63392702Y-250618D01*
X63405967Y-251197D01*
X63798558Y-268337D01*
X63809293Y-269277D01*
X64209386Y-321950D01*
X64220010Y-323823D01*
X64613993Y-411167D01*
X64624405Y-413956D01*
X65009279Y-535307D01*
X65019414Y-538996D01*
X65392232Y-693423D01*
X65402024Y-697989D01*
X65450519Y-723234D01*
X65759942Y-884309D01*
X65769309Y-889716D01*
X65880812Y-960752D01*
X66109638Y-1106530D01*
X66118499Y-1112735D01*
X66438627Y-1358378D01*
X66446914Y-1365332D01*
X66744412Y-1637938D01*
X66752061Y-1645587D01*
X67024667Y-1943085D01*
X67031621Y-1951372D01*
X67277264Y-2271500D01*
X67283469Y-2280361D01*
X67500282Y-2620689D01*
X67505690Y-2630057D01*
X67692007Y-2987969D01*
X67696579Y-2997773D01*
X67850997Y-3370570D01*
X67854696Y-3380733D01*
X67880179Y-3461555D01*
X67976037Y-3765575D01*
X67978836Y-3776022D01*
X68041353Y-4058019D01*
X68044076Y-4070302D01*
X68039368Y-4140013D01*
X67997718Y-4196112D01*
X67932351Y-4220788D01*
X67864020Y-4206207D01*
X67839477Y-4188777D01*
X67696041Y-4058019D01*
X67696039Y-4058017D01*
X67522642Y-3950655D01*
X67522635Y-3950651D01*
X67427546Y-3913814D01*
X67332456Y-3876976D01*
X67131976Y-3839500D01*
X66928024Y-3839500D01*
X66727544Y-3876976D01*
X66727541Y-3876976D01*
X66727541Y-3876977D01*
X66537364Y-3950651D01*
X66537357Y-3950655D01*
X66363960Y-4058017D01*
X66363958Y-4058019D01*
X66213237Y-4195418D01*
X66090327Y-4358178D01*
X65999422Y-4540739D01*
X65999417Y-4540752D01*
X65943602Y-4736917D01*
X65924785Y-4939999D01*
X65924785Y-4940000D01*
X65943602Y-5143082D01*
X65999417Y-5339247D01*
X65999422Y-5339260D01*
X66090327Y-5521821D01*
X66213237Y-5684581D01*
X66363958Y-5821980D01*
X66363960Y-5821982D01*
X66463141Y-5883392D01*
X66537363Y-5929348D01*
X66727544Y-6003024D01*
X66928024Y-6040500D01*
X66928026Y-6040500D01*
X67131974Y-6040500D01*
X67131976Y-6040500D01*
X67332456Y-6003024D01*
X67522637Y-5929348D01*
X67696041Y-5821981D01*
X67846764Y-5684579D01*
X67916546Y-5592173D01*
X67972654Y-5550536D01*
X68042366Y-5545844D01*
X68103548Y-5579587D01*
X68136776Y-5641050D01*
X68139500Y-5666899D01*
X68139500Y-6753100D01*
X68119815Y-6820139D01*
X68067011Y-6865894D01*
X67997853Y-6875838D01*
X67934297Y-6846813D01*
X67916546Y-6827827D01*
X67884186Y-6784976D01*
X67846764Y-6735421D01*
X67813583Y-6705173D01*
X67696041Y-6598019D01*
X67696039Y-6598017D01*
X67522642Y-6490655D01*
X67522635Y-6490651D01*
X67427546Y-6453814D01*
X67332456Y-6416976D01*
X67131976Y-6379500D01*
X66928024Y-6379500D01*
X66727544Y-6416976D01*
X66727541Y-6416976D01*
X66727541Y-6416977D01*
X66537364Y-6490651D01*
X66537357Y-6490655D01*
X66363960Y-6598017D01*
X66363958Y-6598019D01*
X66213237Y-6735418D01*
X66090327Y-6898178D01*
X65999422Y-7080739D01*
X65999417Y-7080752D01*
X65943602Y-7276917D01*
X65924785Y-7479999D01*
X65924785Y-7480000D01*
X65943602Y-7683082D01*
X65999417Y-7879247D01*
X65999422Y-7879260D01*
X66090327Y-8061821D01*
X66213237Y-8224581D01*
X66363958Y-8361980D01*
X66363960Y-8361982D01*
X66463141Y-8423392D01*
X66537363Y-8469348D01*
X66727544Y-8543024D01*
X66928024Y-8580500D01*
X66928026Y-8580500D01*
X67131974Y-8580500D01*
X67131976Y-8580500D01*
X67332456Y-8543024D01*
X67522637Y-8469348D01*
X67696041Y-8361981D01*
X67846764Y-8224579D01*
X67916546Y-8132173D01*
X67972654Y-8090536D01*
X68042366Y-8085844D01*
X68103548Y-8119587D01*
X68136776Y-8181050D01*
X68139500Y-8206899D01*
X68139500Y-9293100D01*
X68119815Y-9360139D01*
X68067011Y-9405894D01*
X67997853Y-9415838D01*
X67934297Y-9386813D01*
X67916546Y-9367827D01*
X67869635Y-9305707D01*
X67846764Y-9275421D01*
X67696041Y-9138019D01*
X67696039Y-9138017D01*
X67522642Y-9030655D01*
X67522635Y-9030651D01*
X67418943Y-8990481D01*
X67332456Y-8956976D01*
X67131976Y-8919500D01*
X66928024Y-8919500D01*
X66727544Y-8956976D01*
X66727541Y-8956976D01*
X66727541Y-8956977D01*
X66537364Y-9030651D01*
X66537357Y-9030655D01*
X66363960Y-9138017D01*
X66363958Y-9138019D01*
X66213237Y-9275418D01*
X66090327Y-9438178D01*
X65999422Y-9620739D01*
X65999417Y-9620752D01*
X65943602Y-9816917D01*
X65924785Y-10019999D01*
X65924785Y-10020000D01*
X65943602Y-10223082D01*
X65999417Y-10419247D01*
X65999422Y-10419260D01*
X66090327Y-10601821D01*
X66213237Y-10764581D01*
X66363958Y-10901980D01*
X66363960Y-10901982D01*
X66463141Y-10963392D01*
X66537363Y-11009348D01*
X66727544Y-11083024D01*
X66928024Y-11120500D01*
X66928026Y-11120500D01*
X67131974Y-11120500D01*
X67131976Y-11120500D01*
X67332456Y-11083024D01*
X67522637Y-11009348D01*
X67696041Y-10901981D01*
X67846764Y-10764579D01*
X67916546Y-10672173D01*
X67972654Y-10630536D01*
X68042366Y-10625844D01*
X68103548Y-10659587D01*
X68136776Y-10721050D01*
X68139500Y-10746899D01*
X68139500Y-11833100D01*
X68119815Y-11900139D01*
X68067011Y-11945894D01*
X67997853Y-11955838D01*
X67934297Y-11926813D01*
X67916546Y-11907827D01*
X67889742Y-11872333D01*
X67846764Y-11815421D01*
X67696041Y-11678019D01*
X67696039Y-11678017D01*
X67522642Y-11570655D01*
X67522635Y-11570651D01*
X67427546Y-11533814D01*
X67332456Y-11496976D01*
X67131976Y-11459500D01*
X66928024Y-11459500D01*
X66727544Y-11496976D01*
X66727541Y-11496976D01*
X66727541Y-11496977D01*
X66537364Y-11570651D01*
X66537357Y-11570655D01*
X66363960Y-11678017D01*
X66363958Y-11678019D01*
X66213237Y-11815418D01*
X66090327Y-11978178D01*
X65999422Y-12160739D01*
X65999417Y-12160752D01*
X65943602Y-12356917D01*
X65924785Y-12559999D01*
X65924785Y-12560000D01*
X65943602Y-12763082D01*
X65999417Y-12959247D01*
X65999422Y-12959260D01*
X66090327Y-13141821D01*
X66213237Y-13304581D01*
X66363958Y-13441980D01*
X66363960Y-13441982D01*
X66463141Y-13503392D01*
X66537363Y-13549348D01*
X66727544Y-13623024D01*
X66928024Y-13660500D01*
X66928026Y-13660500D01*
X67131974Y-13660500D01*
X67131976Y-13660500D01*
X67332456Y-13623024D01*
X67522637Y-13549348D01*
X67696041Y-13441981D01*
X67846764Y-13304579D01*
X67916546Y-13212173D01*
X67972654Y-13170536D01*
X68042366Y-13165844D01*
X68103548Y-13199587D01*
X68136776Y-13261050D01*
X68139500Y-13286899D01*
X68139500Y-14373100D01*
X68119815Y-14440139D01*
X68067011Y-14485894D01*
X67997853Y-14495838D01*
X67934297Y-14466813D01*
X67916546Y-14447827D01*
X67889742Y-14412333D01*
X67846764Y-14355421D01*
X67696041Y-14218019D01*
X67696039Y-14218017D01*
X67522642Y-14110655D01*
X67522635Y-14110651D01*
X67427546Y-14073814D01*
X67332456Y-14036976D01*
X67131976Y-13999500D01*
X66928024Y-13999500D01*
X66727544Y-14036976D01*
X66727541Y-14036976D01*
X66727541Y-14036977D01*
X66537364Y-14110651D01*
X66537357Y-14110655D01*
X66363960Y-14218017D01*
X66363958Y-14218019D01*
X66213237Y-14355418D01*
X66090327Y-14518178D01*
X65999422Y-14700739D01*
X65999417Y-14700752D01*
X65943602Y-14896917D01*
X65924785Y-15099999D01*
X65924785Y-15100000D01*
X65943602Y-15303082D01*
X65999417Y-15499247D01*
X65999422Y-15499260D01*
X66090327Y-15681821D01*
X66213237Y-15844581D01*
X66363958Y-15981980D01*
X66363960Y-15981982D01*
X66463141Y-16043392D01*
X66537363Y-16089348D01*
X66727544Y-16163024D01*
X66928024Y-16200500D01*
X66928026Y-16200500D01*
X67131974Y-16200500D01*
X67131976Y-16200500D01*
X67332456Y-16163024D01*
X67522637Y-16089348D01*
X67696041Y-15981981D01*
X67846764Y-15844579D01*
X67916546Y-15752173D01*
X67972654Y-15710536D01*
X68042366Y-15705844D01*
X68103548Y-15739587D01*
X68136776Y-15801050D01*
X68139500Y-15826899D01*
X68139500Y-16913100D01*
X68119815Y-16980139D01*
X68067011Y-17025894D01*
X67997853Y-17035838D01*
X67934297Y-17006813D01*
X67916546Y-16987827D01*
X67889742Y-16952333D01*
X67846764Y-16895421D01*
X67696041Y-16758019D01*
X67696039Y-16758017D01*
X67522642Y-16650655D01*
X67522635Y-16650651D01*
X67427546Y-16613814D01*
X67332456Y-16576976D01*
X67131976Y-16539500D01*
X66928024Y-16539500D01*
X66727544Y-16576976D01*
X66727541Y-16576976D01*
X66727541Y-16576977D01*
X66537364Y-16650651D01*
X66537357Y-16650655D01*
X66363960Y-16758017D01*
X66363958Y-16758019D01*
X66213237Y-16895418D01*
X66090327Y-17058178D01*
X65999422Y-17240739D01*
X65999417Y-17240752D01*
X65943602Y-17436917D01*
X65924785Y-17639999D01*
X65924785Y-17640000D01*
X65943602Y-17843082D01*
X65999417Y-18039247D01*
X65999422Y-18039260D01*
X66090327Y-18221821D01*
X66213237Y-18384581D01*
X66363958Y-18521980D01*
X66363960Y-18521982D01*
X66463141Y-18583392D01*
X66537363Y-18629348D01*
X66727544Y-18703024D01*
X66928024Y-18740500D01*
X66928026Y-18740500D01*
X67131974Y-18740500D01*
X67131976Y-18740500D01*
X67332456Y-18703024D01*
X67522637Y-18629348D01*
X67696041Y-18521981D01*
X67846764Y-18384579D01*
X67916546Y-18292173D01*
X67972654Y-18250536D01*
X68042366Y-18245844D01*
X68103548Y-18279587D01*
X68136776Y-18341050D01*
X68139500Y-18366899D01*
X68139500Y-19453100D01*
X68119815Y-19520139D01*
X68067011Y-19565894D01*
X67997853Y-19575838D01*
X67934297Y-19546813D01*
X67916546Y-19527827D01*
X67889742Y-19492333D01*
X67846764Y-19435421D01*
X67696041Y-19298019D01*
X67696039Y-19298017D01*
X67522642Y-19190655D01*
X67522635Y-19190651D01*
X67406083Y-19145499D01*
X67332456Y-19116976D01*
X67131976Y-19079500D01*
X66928024Y-19079500D01*
X66727544Y-19116976D01*
X66727541Y-19116976D01*
X66727541Y-19116977D01*
X66537364Y-19190651D01*
X66537357Y-19190655D01*
X66363960Y-19298017D01*
X66363958Y-19298019D01*
X66213237Y-19435418D01*
X66090327Y-19598178D01*
X65999422Y-19780739D01*
X65999417Y-19780752D01*
X65943602Y-19976917D01*
X65924785Y-20179999D01*
X65924785Y-20180000D01*
X65943602Y-20383082D01*
X65999417Y-20579247D01*
X65999422Y-20579260D01*
X66090327Y-20761821D01*
X66213237Y-20924581D01*
X66363958Y-21061980D01*
X66363960Y-21061982D01*
X66463141Y-21123392D01*
X66537363Y-21169348D01*
X66727544Y-21243024D01*
X66928024Y-21280500D01*
X66928026Y-21280500D01*
X67131974Y-21280500D01*
X67131976Y-21280500D01*
X67332456Y-21243024D01*
X67522637Y-21169348D01*
X67696041Y-21061981D01*
X67846764Y-20924579D01*
X67916546Y-20832173D01*
X67972654Y-20790536D01*
X68042366Y-20785844D01*
X68103548Y-20819587D01*
X68136776Y-20881050D01*
X68139500Y-20906899D01*
X68139500Y-21993100D01*
X68119815Y-22060139D01*
X68067011Y-22105894D01*
X67997853Y-22115838D01*
X67934297Y-22086813D01*
X67916546Y-22067827D01*
X67889742Y-22032333D01*
X67846764Y-21975421D01*
X67696041Y-21838019D01*
X67696039Y-21838017D01*
X67522642Y-21730655D01*
X67522635Y-21730651D01*
X67427546Y-21693814D01*
X67332456Y-21656976D01*
X67131976Y-21619500D01*
X66928024Y-21619500D01*
X66727544Y-21656976D01*
X66727541Y-21656976D01*
X66727541Y-21656977D01*
X66537364Y-21730651D01*
X66537357Y-21730655D01*
X66363960Y-21838017D01*
X66363958Y-21838019D01*
X66213237Y-21975418D01*
X66090327Y-22138178D01*
X65999422Y-22320739D01*
X65999417Y-22320752D01*
X65943602Y-22516917D01*
X65924785Y-22719999D01*
X65924785Y-22720000D01*
X65943602Y-22923082D01*
X65999417Y-23119247D01*
X65999422Y-23119260D01*
X66090327Y-23301821D01*
X66213237Y-23464581D01*
X66363958Y-23601980D01*
X66363960Y-23601982D01*
X66463141Y-23663392D01*
X66537363Y-23709348D01*
X66727544Y-23783024D01*
X66928024Y-23820500D01*
X66928026Y-23820500D01*
X67131974Y-23820500D01*
X67131976Y-23820500D01*
X67332456Y-23783024D01*
X67522637Y-23709348D01*
X67696041Y-23601981D01*
X67846764Y-23464579D01*
X67916546Y-23372173D01*
X67972654Y-23330536D01*
X68042366Y-23325844D01*
X68103548Y-23359587D01*
X68136776Y-23421050D01*
X68139500Y-23446899D01*
X68139500Y-24533100D01*
X68119815Y-24600139D01*
X68067011Y-24645894D01*
X67997853Y-24655838D01*
X67934297Y-24626813D01*
X67916546Y-24607827D01*
X67864285Y-24538623D01*
X67846764Y-24515421D01*
X67773280Y-24448432D01*
X67696041Y-24378019D01*
X67696039Y-24378017D01*
X67522642Y-24270655D01*
X67522635Y-24270651D01*
X67427546Y-24233814D01*
X67332456Y-24196976D01*
X67131976Y-24159500D01*
X66928024Y-24159500D01*
X66727544Y-24196976D01*
X66727541Y-24196976D01*
X66727541Y-24196977D01*
X66537364Y-24270651D01*
X66537357Y-24270655D01*
X66363960Y-24378017D01*
X66363958Y-24378019D01*
X66213237Y-24515418D01*
X66090327Y-24678178D01*
X65999422Y-24860739D01*
X65999417Y-24860752D01*
X65943602Y-25056917D01*
X65924785Y-25259999D01*
X65924785Y-25260000D01*
X65943602Y-25463082D01*
X65999417Y-25659247D01*
X65999422Y-25659260D01*
X66090327Y-25841821D01*
X66213237Y-26004581D01*
X66363958Y-26141980D01*
X66363960Y-26141982D01*
X66463141Y-26203392D01*
X66537363Y-26249348D01*
X66727544Y-26323024D01*
X66928024Y-26360500D01*
X66928026Y-26360500D01*
X67131974Y-26360500D01*
X67131976Y-26360500D01*
X67332456Y-26323024D01*
X67522637Y-26249348D01*
X67696041Y-26141981D01*
X67846764Y-26004579D01*
X67916546Y-25912173D01*
X67972654Y-25870536D01*
X68042366Y-25865844D01*
X68103548Y-25899587D01*
X68136776Y-25961050D01*
X68139500Y-25986899D01*
X68139500Y-27073100D01*
X68119815Y-27140139D01*
X68067011Y-27185894D01*
X67997853Y-27195838D01*
X67934297Y-27166813D01*
X67916546Y-27147827D01*
X67861565Y-27075021D01*
X67846764Y-27055421D01*
X67828925Y-27039159D01*
X67696041Y-26918019D01*
X67696039Y-26918017D01*
X67522642Y-26810655D01*
X67522635Y-26810651D01*
X67427546Y-26773814D01*
X67332456Y-26736976D01*
X67131976Y-26699500D01*
X66928024Y-26699500D01*
X66727544Y-26736976D01*
X66727541Y-26736976D01*
X66727541Y-26736977D01*
X66537364Y-26810651D01*
X66537357Y-26810655D01*
X66363960Y-26918017D01*
X66363958Y-26918019D01*
X66213237Y-27055418D01*
X66090327Y-27218178D01*
X65999422Y-27400739D01*
X65999417Y-27400752D01*
X65943602Y-27596917D01*
X65924785Y-27799999D01*
X65924785Y-27800000D01*
X65943602Y-28003082D01*
X65999417Y-28199247D01*
X65999422Y-28199260D01*
X66090327Y-28381821D01*
X66213237Y-28544581D01*
X66363958Y-28681980D01*
X66363960Y-28681982D01*
X66463141Y-28743392D01*
X66537363Y-28789348D01*
X66727544Y-28863024D01*
X66928024Y-28900500D01*
X66928026Y-28900500D01*
X67131974Y-28900500D01*
X67131976Y-28900500D01*
X67332456Y-28863024D01*
X67522637Y-28789348D01*
X67696041Y-28681981D01*
X67846764Y-28544579D01*
X67916546Y-28452173D01*
X67972654Y-28410536D01*
X68042366Y-28405844D01*
X68103548Y-28439587D01*
X68136776Y-28501050D01*
X68139500Y-28526899D01*
X68139500Y-29613100D01*
X68119815Y-29680139D01*
X68067011Y-29725894D01*
X67997853Y-29735838D01*
X67934297Y-29706813D01*
X67916546Y-29687827D01*
X67869635Y-29625707D01*
X67846764Y-29595421D01*
X67696041Y-29458019D01*
X67696039Y-29458017D01*
X67522642Y-29350655D01*
X67522635Y-29350651D01*
X67422805Y-29311977D01*
X67332456Y-29276976D01*
X67131976Y-29239500D01*
X66928024Y-29239500D01*
X66727544Y-29276976D01*
X66727541Y-29276976D01*
X66727541Y-29276977D01*
X66537364Y-29350651D01*
X66537357Y-29350655D01*
X66363960Y-29458017D01*
X66363958Y-29458019D01*
X66213237Y-29595418D01*
X66090327Y-29758178D01*
X65999422Y-29940739D01*
X65999417Y-29940752D01*
X65943602Y-30136917D01*
X65924785Y-30339999D01*
X65924785Y-30340000D01*
X65943602Y-30543082D01*
X65999417Y-30739247D01*
X65999422Y-30739260D01*
X66090327Y-30921821D01*
X66213237Y-31084581D01*
X66363958Y-31221980D01*
X66363960Y-31221982D01*
X66463141Y-31283392D01*
X66537363Y-31329348D01*
X66727544Y-31403024D01*
X66928024Y-31440500D01*
X66928026Y-31440500D01*
X67131974Y-31440500D01*
X67131976Y-31440500D01*
X67332456Y-31403024D01*
X67522637Y-31329348D01*
X67696041Y-31221981D01*
X67846764Y-31084579D01*
X67916546Y-30992173D01*
X67972654Y-30950536D01*
X68042366Y-30945844D01*
X68103548Y-30979587D01*
X68136776Y-31041050D01*
X68139500Y-31066899D01*
X68139500Y-32153100D01*
X68119815Y-32220139D01*
X68067011Y-32265894D01*
X67997853Y-32275838D01*
X67934297Y-32246813D01*
X67916546Y-32227827D01*
X67884447Y-32185321D01*
X67846764Y-32135421D01*
X67696041Y-31998019D01*
X67696039Y-31998017D01*
X67522642Y-31890655D01*
X67522635Y-31890651D01*
X67427546Y-31853814D01*
X67332456Y-31816976D01*
X67131976Y-31779500D01*
X66928024Y-31779500D01*
X66727544Y-31816976D01*
X66727541Y-31816976D01*
X66727541Y-31816977D01*
X66537364Y-31890651D01*
X66537357Y-31890655D01*
X66363960Y-31998017D01*
X66363958Y-31998019D01*
X66213237Y-32135418D01*
X66090327Y-32298178D01*
X65999422Y-32480739D01*
X65999417Y-32480752D01*
X65943602Y-32676917D01*
X65924785Y-32879999D01*
X65924785Y-32880000D01*
X65943602Y-33083082D01*
X65999417Y-33279247D01*
X65999422Y-33279260D01*
X66090327Y-33461821D01*
X66213237Y-33624581D01*
X66316001Y-33718262D01*
X66360841Y-33759139D01*
X66363958Y-33761980D01*
X66363960Y-33761982D01*
X66463141Y-33823392D01*
X66537363Y-33869348D01*
X66727544Y-33943024D01*
X66928024Y-33980500D01*
X66928026Y-33980500D01*
X67131974Y-33980500D01*
X67131976Y-33980500D01*
X67332456Y-33943024D01*
X67522637Y-33869348D01*
X67696041Y-33761981D01*
X67846764Y-33624579D01*
X67901502Y-33552094D01*
X67916546Y-33532173D01*
X67972654Y-33490536D01*
X68042366Y-33485844D01*
X68103548Y-33519587D01*
X68136776Y-33581050D01*
X68139500Y-33606899D01*
X68139500Y-36755457D01*
X68119815Y-36822496D01*
X68067011Y-36868251D01*
X67997853Y-36878195D01*
X67989804Y-36875988D01*
X67989719Y-36876416D01*
X67904677Y-36859500D01*
X67904674Y-36859500D01*
X66155326Y-36859500D01*
X66141603Y-36862229D01*
X66130476Y-36863469D01*
X66130508Y-36863720D01*
X66124459Y-36864471D01*
X66116712Y-36866219D01*
X66115788Y-36866419D01*
X66114936Y-36866694D01*
X66101116Y-36870282D01*
X66082261Y-36874033D01*
X66082254Y-36874036D01*
X66058513Y-36889899D01*
X66040004Y-36900100D01*
X66024612Y-36906943D01*
X66024610Y-36906944D01*
X65273976Y-37436804D01*
X65207855Y-37459383D01*
X65202467Y-37459500D01*
X37878676Y-37459500D01*
X37811637Y-37439815D01*
X37790995Y-37423181D01*
X36339075Y-35971261D01*
X36320740Y-35947897D01*
X36320064Y-35946783D01*
X36320062Y-35946779D01*
X35909957Y-35399973D01*
X35900433Y-35388149D01*
X35898875Y-35386215D01*
X35897790Y-35384960D01*
X35892015Y-35378732D01*
X35884571Y-35369915D01*
X35878282Y-35361718D01*
X35855836Y-35344494D01*
X35844596Y-35334081D01*
X35844523Y-35334161D01*
X35840030Y-35330045D01*
X35293211Y-34919930D01*
X35290085Y-34917957D01*
X35268600Y-34900786D01*
X26829075Y-26461261D01*
X26810740Y-26437897D01*
X26810064Y-26436783D01*
X26810062Y-26436779D01*
X26399957Y-25889973D01*
X26388869Y-25876208D01*
X26387806Y-25874978D01*
X26387799Y-25874971D01*
X26387790Y-25874960D01*
X26382015Y-25868732D01*
X26374571Y-25859915D01*
X26368282Y-25851718D01*
X26355384Y-25841821D01*
X26242842Y-25755464D01*
X26096762Y-25694956D01*
X26096760Y-25694955D01*
X25940002Y-25674318D01*
X25940001Y-25674318D01*
X25940000Y-25674318D01*
X25932519Y-25675302D01*
X25911948Y-25678010D01*
X25896630Y-25678596D01*
X25896635Y-25678703D01*
X25890555Y-25678969D01*
X25383066Y-25751468D01*
X25213912Y-25775633D01*
X25213911Y-25775633D01*
X25213906Y-25775634D01*
X25210311Y-25776447D01*
X25182966Y-25779500D01*
X16344622Y-25779500D01*
X16317087Y-25776404D01*
X15619023Y-25617428D01*
X15616884Y-25616921D01*
X15465057Y-25579500D01*
X15465056Y-25579500D01*
X15294944Y-25579500D01*
X15294943Y-25579500D01*
X15143108Y-25616923D01*
X15140968Y-25617430D01*
X14442911Y-25776404D01*
X14415377Y-25779500D01*
X11056484Y-25779500D01*
X10989445Y-25759815D01*
X10943690Y-25707011D01*
X10932488Y-25654511D01*
X10932508Y-25651966D01*
X10932598Y-25640721D01*
X10926932Y-25585134D01*
X10915634Y-25532421D01*
X10908082Y-25504827D01*
X10858589Y-25418289D01*
X10812736Y-25365571D01*
X10779904Y-25334008D01*
X10779901Y-25334006D01*
X10691487Y-25287967D01*
X10691486Y-25287966D01*
X10691483Y-25287965D01*
X10624408Y-25268405D01*
X10624406Y-25268404D01*
X10624404Y-25268404D01*
X10624400Y-25268403D01*
X10552403Y-25258188D01*
X6959059Y-25264890D01*
X6891983Y-25245330D01*
X6846130Y-25192612D01*
X6834828Y-25140750D01*
X6834923Y-25056917D01*
X6843970Y-17030000D01*
X13184355Y-17030000D01*
X13204859Y-17198869D01*
X13204860Y-17198874D01*
X13265182Y-17357931D01*
X13315272Y-17430497D01*
X13361817Y-17497929D01*
X13467505Y-17591560D01*
X13489150Y-17610736D01*
X13639773Y-17689789D01*
X13639775Y-17689790D01*
X13804944Y-17730500D01*
X13975056Y-17730500D01*
X14126958Y-17693059D01*
X14129052Y-17692563D01*
X14553603Y-17595877D01*
X14827081Y-17533596D01*
X14854615Y-17530500D01*
X25085890Y-17530500D01*
X25085892Y-17530500D01*
X25213186Y-17496392D01*
X25327314Y-17430500D01*
X27758740Y-14999072D01*
X27782108Y-14980737D01*
X27783215Y-14980064D01*
X27783220Y-14980062D01*
X28330026Y-14569957D01*
X28343869Y-14558801D01*
X28345098Y-14557738D01*
X28351265Y-14552017D01*
X28360076Y-14544577D01*
X28368282Y-14538282D01*
X28464536Y-14412841D01*
X28525044Y-14266762D01*
X28544365Y-14120001D01*
X28545682Y-14110001D01*
X28545682Y-14109998D01*
X28526361Y-13963239D01*
X28525044Y-13953238D01*
X28464536Y-13807159D01*
X28368282Y-13681718D01*
X28242841Y-13585464D01*
X28164835Y-13553153D01*
X28096762Y-13524956D01*
X28096760Y-13524955D01*
X27940001Y-13504318D01*
X27939999Y-13504318D01*
X27783234Y-13524956D01*
X27783232Y-13524957D01*
X27751167Y-13538238D01*
X27722755Y-13545656D01*
X27722762Y-13545687D01*
X27721980Y-13545858D01*
X27718325Y-13546813D01*
X27716819Y-13546991D01*
X27716810Y-13546993D01*
X27204808Y-13713426D01*
X27166475Y-13719500D01*
X23663134Y-13719500D01*
X23626823Y-13714064D01*
X23108897Y-13555447D01*
X23108898Y-13555447D01*
X23107587Y-13555282D01*
X23107227Y-13555236D01*
X23104309Y-13554463D01*
X23103687Y-13554330D01*
X23103693Y-13554300D01*
X23075289Y-13546772D01*
X23046765Y-13534957D01*
X23046760Y-13534955D01*
X22890001Y-13514318D01*
X22889999Y-13514318D01*
X22733239Y-13534955D01*
X22733237Y-13534956D01*
X22587160Y-13595463D01*
X22461718Y-13691718D01*
X22365463Y-13817160D01*
X22304956Y-13963237D01*
X22304955Y-13963239D01*
X22284318Y-14119998D01*
X22284318Y-14120001D01*
X22304955Y-14276760D01*
X22304956Y-14276762D01*
X22344860Y-14373100D01*
X22365464Y-14422841D01*
X22461718Y-14548282D01*
X22587159Y-14644536D01*
X22733238Y-14705044D01*
X22811619Y-14715363D01*
X22889999Y-14725682D01*
X22890000Y-14725682D01*
X22890001Y-14725682D01*
X22913768Y-14722552D01*
X23046762Y-14705044D01*
X23057155Y-14700739D01*
X23075303Y-14693222D01*
X23103021Y-14686240D01*
X23102924Y-14685756D01*
X23108889Y-14684552D01*
X23108897Y-14684552D01*
X23626820Y-14525935D01*
X23663131Y-14520500D01*
X26522324Y-14520500D01*
X26589363Y-14540185D01*
X26635118Y-14592989D01*
X26645062Y-14662147D01*
X26616037Y-14725703D01*
X26610005Y-14732181D01*
X24849005Y-16493181D01*
X24787682Y-16526666D01*
X24761324Y-16529500D01*
X14854622Y-16529500D01*
X14827087Y-16526404D01*
X14129023Y-16367428D01*
X14126884Y-16366921D01*
X13975057Y-16329500D01*
X13975056Y-16329500D01*
X13804944Y-16329500D01*
X13639773Y-16370210D01*
X13489150Y-16449263D01*
X13361816Y-16562072D01*
X13265182Y-16702068D01*
X13204860Y-16861125D01*
X13204859Y-16861130D01*
X13184355Y-17030000D01*
X6843970Y-17030000D01*
X6850079Y-11609999D01*
X20024750Y-11609999D01*
X20024750Y-11610000D01*
X20043670Y-11753708D01*
X20043671Y-11753712D01*
X20099137Y-11887622D01*
X20099138Y-11887624D01*
X20099139Y-11887625D01*
X20187379Y-12002621D01*
X20302375Y-12090861D01*
X20436291Y-12146330D01*
X20563280Y-12163048D01*
X20579999Y-12165250D01*
X20580000Y-12165250D01*
X20580001Y-12165250D01*
X20598921Y-12162758D01*
X20723709Y-12146330D01*
X20757290Y-12132419D01*
X20785745Y-12124445D01*
X20792939Y-12123331D01*
X21218278Y-11968022D01*
X21260809Y-11960500D01*
X33163456Y-11960500D01*
X33230495Y-11980185D01*
X33251137Y-11996819D01*
X41520310Y-20265992D01*
X41543063Y-20297278D01*
X41711589Y-20627289D01*
X41717402Y-20634972D01*
X41731309Y-20658274D01*
X41749621Y-20698370D01*
X41749622Y-20698371D01*
X41749623Y-20698373D01*
X41843872Y-20807143D01*
X41964947Y-20884953D01*
X41964950Y-20884954D01*
X41964949Y-20884954D01*
X42039689Y-20906899D01*
X42099909Y-20924581D01*
X42103036Y-20925499D01*
X42103038Y-20925500D01*
X42103039Y-20925500D01*
X42246962Y-20925500D01*
X42246962Y-20925499D01*
X42385053Y-20884953D01*
X42506128Y-20807143D01*
X42600377Y-20698373D01*
X42660165Y-20567457D01*
X42680647Y-20425000D01*
X42660165Y-20282543D01*
X42600377Y-20151627D01*
X42506128Y-20042857D01*
X42385053Y-19965047D01*
X42385049Y-19965046D01*
X42378139Y-19961890D01*
X42373255Y-19959529D01*
X42047279Y-19793064D01*
X42015993Y-19770311D01*
X33575213Y-11329531D01*
X33575208Y-11329527D01*
X33495291Y-11283387D01*
X33495287Y-11283385D01*
X33489926Y-11281949D01*
X33489926Y-11281948D01*
X33421476Y-11263608D01*
X33406144Y-11259500D01*
X33406143Y-11259500D01*
X26992797Y-11259500D01*
X26925758Y-11239815D01*
X26880003Y-11187011D01*
X26870059Y-11117853D01*
X26899084Y-11054297D01*
X26935171Y-11025704D01*
X27020849Y-10980736D01*
X27020850Y-10980734D01*
X27020852Y-10980734D01*
X27148183Y-10867929D01*
X27244818Y-10727930D01*
X27248293Y-10718765D01*
X27259273Y-10696710D01*
X27638716Y-10093472D01*
X27655992Y-10071820D01*
X29590995Y-8136819D01*
X29652318Y-8103334D01*
X29678676Y-8100500D01*
X39293159Y-8100500D01*
X39322638Y-8104055D01*
X39323902Y-8104363D01*
X39323912Y-8104367D01*
X40000550Y-8201029D01*
X40018144Y-8202924D01*
X40019766Y-8203042D01*
X40028261Y-8203362D01*
X40039764Y-8204334D01*
X40050000Y-8205682D01*
X40078051Y-8201988D01*
X40093361Y-8201404D01*
X40093357Y-8201296D01*
X40099440Y-8201029D01*
X40099442Y-8201028D01*
X40099449Y-8201029D01*
X40776088Y-8104367D01*
X40776098Y-8104363D01*
X40779689Y-8103553D01*
X40807034Y-8100500D01*
X48621324Y-8100500D01*
X48688363Y-8120185D01*
X48709005Y-8136819D01*
X49562668Y-8990481D01*
X49580843Y-9013582D01*
X49581835Y-9015209D01*
X49581838Y-9015213D01*
X49581839Y-9015215D01*
X49814932Y-9324451D01*
X49814933Y-9324454D01*
X49992902Y-9560558D01*
X50003921Y-9574179D01*
X50004974Y-9575393D01*
X50010662Y-9581516D01*
X50018184Y-9590417D01*
X50024218Y-9598282D01*
X50024220Y-9598284D01*
X50149657Y-9694535D01*
X50149658Y-9694535D01*
X50149659Y-9694536D01*
X50295738Y-9755044D01*
X50354150Y-9762734D01*
X50452499Y-9775682D01*
X50452500Y-9775682D01*
X50452501Y-9775682D01*
X50530934Y-9765356D01*
X50609262Y-9755044D01*
X50755341Y-9694536D01*
X50880782Y-9598282D01*
X50977036Y-9472841D01*
X51037544Y-9326762D01*
X51058182Y-9170000D01*
X51053971Y-9138017D01*
X51039837Y-9030655D01*
X51037544Y-9013238D01*
X50977036Y-8867159D01*
X50977035Y-8867158D01*
X50977035Y-8867157D01*
X50880784Y-8741720D01*
X50880782Y-8741719D01*
X50880782Y-8741718D01*
X50857587Y-8723920D01*
X50846518Y-8713691D01*
X50846456Y-8713760D01*
X50841957Y-8709659D01*
X50294190Y-8301008D01*
X50291595Y-8299378D01*
X50269869Y-8282055D01*
X49187316Y-7199502D01*
X49187314Y-7199500D01*
X49130250Y-7166554D01*
X49073187Y-7133608D01*
X49009539Y-7116554D01*
X48945892Y-7099500D01*
X48945891Y-7099500D01*
X40806841Y-7099500D01*
X40777362Y-7095945D01*
X40776091Y-7095634D01*
X40776090Y-7095633D01*
X40776088Y-7095633D01*
X40099444Y-6998969D01*
X40081750Y-6997067D01*
X40081747Y-6997066D01*
X40081740Y-6997066D01*
X40080116Y-6996948D01*
X40071720Y-6996633D01*
X40060196Y-6995660D01*
X40050002Y-6994318D01*
X40050000Y-6994318D01*
X40021947Y-6998010D01*
X40006630Y-6998596D01*
X40006635Y-6998703D01*
X40000555Y-6998969D01*
X39493066Y-7071468D01*
X39323912Y-7095633D01*
X39323911Y-7095633D01*
X39323906Y-7095634D01*
X39320311Y-7096447D01*
X39292966Y-7099500D01*
X29354108Y-7099500D01*
X29226812Y-7133608D01*
X29112686Y-7199500D01*
X29112683Y-7199502D01*
X26948185Y-9363999D01*
X26926527Y-9381280D01*
X26320093Y-9762734D01*
X26316264Y-9765576D01*
X26316101Y-9765356D01*
X26296981Y-9778414D01*
X26219151Y-9819264D01*
X26219148Y-9819266D01*
X26091816Y-9932072D01*
X25995182Y-10072068D01*
X25934860Y-10231125D01*
X25934859Y-10231130D01*
X25914355Y-10400000D01*
X25934859Y-10568869D01*
X25934860Y-10568874D01*
X25995182Y-10727931D01*
X26057475Y-10818177D01*
X26091817Y-10867929D01*
X26197505Y-10961560D01*
X26219150Y-10980736D01*
X26304829Y-11025704D01*
X26355042Y-11074289D01*
X26371016Y-11142308D01*
X26347681Y-11208165D01*
X26292444Y-11250952D01*
X26247203Y-11259500D01*
X21260812Y-11259500D01*
X21218281Y-11251978D01*
X20792941Y-11096669D01*
X20792932Y-11096667D01*
X20783974Y-11095174D01*
X20756914Y-11087423D01*
X20723709Y-11073670D01*
X20618282Y-11059790D01*
X20580001Y-11054750D01*
X20579999Y-11054750D01*
X20436291Y-11073670D01*
X20436287Y-11073671D01*
X20302377Y-11129137D01*
X20187379Y-11217379D01*
X20099137Y-11332377D01*
X20043671Y-11466287D01*
X20043670Y-11466291D01*
X20024750Y-11609999D01*
X6850079Y-11609999D01*
X6855360Y-6924428D01*
X6855314Y-6924000D01*
X6850177Y-6875838D01*
X6849551Y-6869968D01*
X6838345Y-6818317D01*
X6831079Y-6791802D01*
X6798972Y-6735419D01*
X6781751Y-6705177D01*
X6781750Y-6705176D01*
X6781748Y-6705172D01*
X6745957Y-6663867D01*
X6735996Y-6652371D01*
X6703219Y-6620743D01*
X6614882Y-6574534D01*
X6614882Y-6574533D01*
X6547850Y-6554851D01*
X6547838Y-6554848D01*
X6475861Y-6544500D01*
X6475860Y-6544500D01*
X5024000Y-6544500D01*
X5023997Y-6544500D01*
X4969687Y-6550338D01*
X4918181Y-6561543D01*
X4918172Y-6561546D01*
X4891807Y-6568779D01*
X4891796Y-6568783D01*
X4805181Y-6618105D01*
X4805173Y-6618111D01*
X4752371Y-6663863D01*
X4720743Y-6696640D01*
X4674534Y-6784977D01*
X4674533Y-6784977D01*
X4654851Y-6852009D01*
X4654848Y-6852021D01*
X4644500Y-6923998D01*
X4644500Y-16642806D01*
X4624815Y-16709845D01*
X4608181Y-16730487D01*
X2930487Y-18408181D01*
X2869164Y-18441666D01*
X2842806Y-18444500D01*
X1023997Y-18444500D01*
X969670Y-18450340D01*
X968212Y-18450577D01*
X967870Y-18450534D01*
X966384Y-18450694D01*
X966346Y-18450342D01*
X898887Y-18441869D01*
X845275Y-18397064D01*
X828604Y-18360268D01*
X825281Y-18347865D01*
X749515Y-18216635D01*
X642365Y-18109485D01*
X576750Y-18071602D01*
X511136Y-18033719D01*
X437950Y-18014109D01*
X364766Y-17994500D01*
X213234Y-17994500D01*
X66863Y-18033719D01*
X-64365Y-18109485D01*
X-64368Y-18109487D01*
X-171513Y-18216632D01*
X-171515Y-18216635D01*
X-247281Y-18347863D01*
X-286500Y-18494234D01*
X-286500Y-18645765D01*
X-247281Y-18792136D01*
X-209398Y-18857750D01*
X-171515Y-18923365D01*
X-64365Y-19030515D01*
X66865Y-19106281D01*
X213234Y-19145500D01*
X213236Y-19145500D01*
X364763Y-19145500D01*
X364766Y-19145500D01*
X488409Y-19112370D01*
X558256Y-19114033D01*
X616119Y-19153195D01*
X643623Y-19217424D01*
X644500Y-19232145D01*
X644500Y-23687854D01*
X624815Y-23754893D01*
X572011Y-23800648D01*
X502853Y-23810592D01*
X488407Y-23807629D01*
X396578Y-23783024D01*
X364766Y-23774500D01*
X213234Y-23774500D01*
X66863Y-23813719D01*
X-64365Y-23889485D01*
X-64368Y-23889487D01*
X-171513Y-23996632D01*
X-171515Y-23996635D01*
X-247281Y-24127863D01*
X-285540Y-24270651D01*
X-286500Y-24274234D01*
X-286500Y-24425766D01*
X-273258Y-24475185D01*
X-247281Y-24572136D01*
X-243029Y-24579500D01*
X-171515Y-24703365D01*
X-64365Y-24810515D01*
X66865Y-24886281D01*
X213234Y-24925500D01*
X213236Y-24925500D01*
X364764Y-24925500D01*
X364766Y-24925500D01*
X511135Y-24886281D01*
X642365Y-24810515D01*
X749515Y-24703365D01*
X825281Y-24572135D01*
X834260Y-24538621D01*
X870624Y-24478962D01*
X933471Y-24448432D01*
X971677Y-24447977D01*
X1024000Y-24455500D01*
X2465532Y-24455500D01*
X2505263Y-24463402D01*
X2505387Y-24462940D01*
X2512442Y-24464830D01*
X2512981Y-24464937D01*
X2513238Y-24465044D01*
X2590267Y-24475185D01*
X2669999Y-24485682D01*
X2670000Y-24485682D01*
X2670001Y-24485682D01*
X2749733Y-24475185D01*
X2826762Y-24465044D01*
X2827018Y-24464937D01*
X2827557Y-24464830D01*
X2834613Y-24462940D01*
X2834736Y-24463402D01*
X2874468Y-24455500D01*
X3620532Y-24455500D01*
X3660263Y-24463402D01*
X3660387Y-24462940D01*
X3667442Y-24464830D01*
X3667981Y-24464937D01*
X3668238Y-24465044D01*
X3745267Y-24475185D01*
X3824999Y-24485682D01*
X3825000Y-24485682D01*
X3825001Y-24485682D01*
X3904733Y-24475185D01*
X3981762Y-24465044D01*
X3982018Y-24464937D01*
X3982557Y-24464830D01*
X3989613Y-24462940D01*
X3989736Y-24463402D01*
X4029468Y-24455500D01*
X4520500Y-24455500D01*
X4587539Y-24475185D01*
X4633294Y-24527989D01*
X4644500Y-24579500D01*
X4644500Y-26670279D01*
X4650241Y-26724129D01*
X4661256Y-26775214D01*
X4661258Y-26775223D01*
X4661260Y-26775230D01*
X4668303Y-26801180D01*
X4717319Y-26887989D01*
X4717321Y-26887991D01*
X4717322Y-26887993D01*
X4757704Y-26934939D01*
X4762882Y-26940959D01*
X4762890Y-26940967D01*
X4762896Y-26940973D01*
X4795538Y-26972700D01*
X4795545Y-26972705D01*
X4820176Y-26985703D01*
X4883709Y-27019231D01*
X4883713Y-27019232D01*
X4883715Y-27019233D01*
X4950672Y-27039158D01*
X4950673Y-27039158D01*
X4950676Y-27039159D01*
X5022621Y-27049770D01*
X6488181Y-27055093D01*
X6555148Y-27075021D01*
X6600711Y-27127991D01*
X6610403Y-27197185D01*
X6581147Y-27260635D01*
X6575411Y-27266773D01*
X4039005Y-29803181D01*
X3977682Y-29836666D01*
X3951324Y-29839500D01*
X-1865880Y-29839500D01*
X-1910873Y-29831049D01*
X-3221348Y-29320767D01*
X-3221350Y-29320766D01*
X-3221351Y-29320766D01*
X-3221354Y-29320765D01*
X-3221363Y-29320763D01*
X-3234672Y-29318333D01*
X-3257191Y-29311977D01*
X-3347535Y-29276979D01*
X-3347543Y-29276976D01*
X-3414371Y-29264484D01*
X-3548024Y-29239500D01*
X-3751976Y-29239500D01*
X-3952456Y-29276976D01*
X-3952459Y-29276976D01*
X-3952459Y-29276977D01*
X-4142636Y-29350651D01*
X-4142643Y-29350655D01*
X-4316040Y-29458017D01*
X-4316042Y-29458019D01*
X-4466763Y-29595418D01*
X-4526546Y-29674585D01*
X-4582655Y-29716221D01*
X-4652367Y-29720912D01*
X-4713549Y-29687170D01*
X-4746776Y-29625707D01*
X-4749500Y-29599858D01*
X-4749500Y-10760141D01*
X-4729815Y-10693102D01*
X-4677011Y-10647347D01*
X-4607853Y-10637403D01*
X-4544297Y-10666428D01*
X-4526546Y-10685415D01*
X-4466766Y-10764577D01*
X-4466764Y-10764580D01*
X-4316042Y-10901980D01*
X-4316040Y-10901982D01*
X-4216859Y-10963392D01*
X-4142637Y-11009348D01*
X-3952456Y-11083024D01*
X-3751976Y-11120500D01*
X-3751974Y-11120500D01*
X-3548026Y-11120500D01*
X-3548024Y-11120500D01*
X-3347544Y-11083024D01*
X-3157363Y-11009348D01*
X-2983959Y-10901981D01*
X-2833236Y-10764579D01*
X-2710327Y-10601821D01*
X-2619418Y-10419250D01*
X-2563603Y-10223083D01*
X-2544785Y-10020000D01*
X-2552933Y-9932072D01*
X-2563603Y-9816917D01*
X-2598424Y-9694535D01*
X-2619418Y-9620750D01*
X-2630605Y-9598284D01*
X-2663728Y-9531764D01*
X-2710327Y-9438179D01*
X-2833236Y-9275421D01*
X-2833238Y-9275418D01*
X-2983959Y-9138019D01*
X-2983961Y-9138017D01*
X-3157358Y-9030655D01*
X-3157365Y-9030651D01*
X-3261057Y-8990481D01*
X-3347544Y-8956976D01*
X-3548024Y-8919500D01*
X-3751976Y-8919500D01*
X-3952456Y-8956976D01*
X-3952459Y-8956976D01*
X-3952459Y-8956977D01*
X-4142636Y-9030651D01*
X-4142643Y-9030655D01*
X-4316040Y-9138017D01*
X-4316042Y-9138019D01*
X-4466763Y-9275418D01*
X-4526546Y-9354585D01*
X-4582655Y-9396221D01*
X-4652367Y-9400912D01*
X-4713549Y-9367170D01*
X-4746776Y-9305707D01*
X-4749500Y-9279858D01*
X-4749500Y-5680141D01*
X-4729815Y-5613102D01*
X-4677011Y-5567347D01*
X-4607853Y-5557403D01*
X-4544297Y-5586428D01*
X-4526546Y-5605415D01*
X-4466766Y-5684577D01*
X-4466764Y-5684580D01*
X-4316042Y-5821980D01*
X-4316040Y-5821982D01*
X-4216859Y-5883392D01*
X-4142637Y-5929348D01*
X-3952456Y-6003024D01*
X-3751976Y-6040500D01*
X-3751974Y-6040500D01*
X-3548026Y-6040500D01*
X-3548024Y-6040500D01*
X-3347544Y-6003024D01*
X-3157363Y-5929348D01*
X-2983959Y-5821981D01*
X-2833236Y-5684579D01*
X-2710327Y-5521821D01*
X-2619418Y-5339250D01*
X-2563603Y-5143083D01*
X-2544785Y-4940000D01*
X-2563603Y-4736917D01*
X-2619418Y-4540750D01*
X-2710327Y-4358179D01*
X-2833236Y-4195421D01*
X-2833238Y-4195418D01*
X-2983959Y-4058019D01*
X-2983961Y-4058017D01*
X-3157358Y-3950655D01*
X-3157365Y-3950651D01*
X-3252454Y-3913814D01*
X-3347544Y-3876976D01*
X-3548024Y-3839500D01*
X-3751976Y-3839500D01*
X-3952456Y-3876976D01*
X-3952459Y-3876976D01*
X-3952459Y-3876977D01*
X-4142636Y-3950651D01*
X-4142643Y-3950655D01*
X-4316038Y-4058016D01*
X-4446945Y-4177353D01*
X-4509750Y-4207969D01*
X-4579137Y-4199771D01*
X-4633076Y-4155361D01*
X-4654444Y-4088839D01*
X-4651545Y-4058883D01*
X-4588832Y-3776000D01*
X-4586045Y-3765600D01*
X-4464691Y-3380713D01*
X-4461007Y-3370592D01*
X-4306574Y-2997758D01*
X-4302016Y-2987984D01*
X-4115685Y-2630045D01*
X-4110290Y-2620700D01*
X-3893463Y-2280350D01*
X-3887273Y-2271511D01*
X-3758517Y-2103713D01*
X-2230500Y-2103713D01*
X-2230500Y-2316286D01*
X-2213595Y-2423024D01*
X-2197246Y-2526243D01*
X-2163515Y-2630057D01*
X-2131556Y-2728414D01*
X-2035049Y-2917820D01*
X-1910110Y-3089786D01*
X-1759787Y-3240109D01*
X-1587821Y-3365048D01*
X-1587819Y-3365049D01*
X-1587816Y-3365051D01*
X-1398412Y-3461557D01*
X-1196243Y-3527246D01*
X-986287Y-3560500D01*
X-986286Y-3560500D01*
X-773714Y-3560500D01*
X-773713Y-3560500D01*
X-563757Y-3527246D01*
X-361588Y-3461557D01*
X-172184Y-3365051D01*
X-150211Y-3349086D01*
X-214Y-3240109D01*
X-212Y-3240106D01*
X-208Y-3240104D01*
X150104Y-3089792D01*
X150106Y-3089788D01*
X150109Y-3089786D01*
X275048Y-2917820D01*
X275047Y-2917820D01*
X275051Y-2917816D01*
X371557Y-2728412D01*
X437246Y-2526243D01*
X470500Y-2316287D01*
X470500Y-2103713D01*
X437246Y-1893757D01*
X371557Y-1691588D01*
X275051Y-1502184D01*
X275049Y-1502181D01*
X275048Y-1502179D01*
X150109Y-1330213D01*
X-214Y-1179890D01*
X-172180Y-1054951D01*
X-361586Y-958444D01*
X-361587Y-958443D01*
X-361588Y-958443D01*
X-563757Y-892754D01*
X-563759Y-892753D01*
X-563760Y-892753D01*
X-725043Y-867208D01*
X-773713Y-859500D01*
X-986287Y-859500D01*
X-1034958Y-867208D01*
X-1196240Y-892753D01*
X-1398415Y-958444D01*
X-1587821Y-1054951D01*
X-1759787Y-1179890D01*
X-1910110Y-1330213D01*
X-2035049Y-1502179D01*
X-2131556Y-1691585D01*
X-2197247Y-1893760D01*
X-2230500Y-2103713D01*
X-3758517Y-2103713D01*
X-3641615Y-1951363D01*
X-3634677Y-1943094D01*
X-3362051Y-1645575D01*
X-3354425Y-1637949D01*
X-3056906Y-1365323D01*
X-3048637Y-1358385D01*
X-2728489Y-1112727D01*
X-2719650Y-1106537D01*
X-2379300Y-889710D01*
X-2369955Y-884315D01*
X-2012016Y-697984D01*
X-2002242Y-693426D01*
X-1629408Y-538993D01*
X-1619287Y-535309D01*
X-1234400Y-413955D01*
X-1224000Y-411168D01*
X-830007Y-323823D01*
X-819391Y-321951D01*
X-419292Y-269276D01*
X-408561Y-268337D01*
X-15364Y-251170D01*
X-2702Y-250618D01*
X2706Y-250500D01*
X44170Y-250500D01*
X1285458Y-250500D01*
X1352497Y-270185D01*
G37*
%TD.AperFunction*%
%TD*%
%TA.AperFunction,Conductor*%
%TO.N,VCC_5V*%
G36*
X6542899Y-6819685D02*
G01*
X6588654Y-6872489D01*
X6599860Y-6924140D01*
X6578900Y-25521099D01*
X6578900Y-25521100D01*
X10552880Y-25513688D01*
X10619955Y-25533248D01*
X10665808Y-25585966D01*
X10677106Y-25638679D01*
X10676564Y-25706491D01*
X10656344Y-25773371D01*
X10603176Y-25818702D01*
X10552568Y-25829500D01*
X8210691Y-25829500D01*
X8120325Y-25853713D01*
X8120324Y-25853712D01*
X8096116Y-25860199D01*
X8096113Y-25860200D01*
X7993386Y-25919511D01*
X7993383Y-25919513D01*
X7148565Y-26764330D01*
X7087242Y-26797815D01*
X7060709Y-26800649D01*
X6600000Y-26800000D01*
X6594726Y-26799980D01*
X5023549Y-26794272D01*
X4956582Y-26774344D01*
X4911019Y-26721374D01*
X4900000Y-26670273D01*
X4900000Y-24200000D01*
X1024000Y-24200000D01*
X956961Y-24180315D01*
X911206Y-24127511D01*
X900000Y-24076000D01*
X900000Y-18824000D01*
X919685Y-18756961D01*
X972489Y-18711206D01*
X1024000Y-18700000D01*
X3000000Y-18700000D01*
X4900000Y-16800000D01*
X4900000Y-6924000D01*
X4919685Y-6856961D01*
X4972489Y-6811206D01*
X5024000Y-6800000D01*
X6475860Y-6800000D01*
X6542899Y-6819685D01*
G37*
%TD.AperFunction*%
%TD*%
%TA.AperFunction,Conductor*%
%TO.N,/PB11{slash}MD*%
G36*
X23397570Y-33067650D02*
G01*
X23398423Y-33068423D01*
X24232965Y-33902965D01*
X24236392Y-33911238D01*
X24234188Y-33918073D01*
X23772389Y-34559648D01*
X23771166Y-34561086D01*
X23638015Y-34694237D01*
X23629742Y-34697664D01*
X23622200Y-34694908D01*
X22700320Y-33917440D01*
X22696205Y-33909487D01*
X22698816Y-33901077D01*
X23381104Y-33069275D01*
X23389000Y-33065053D01*
X23397570Y-33067650D01*
G37*
%TD.AperFunction*%
%TD*%
%TA.AperFunction,Conductor*%
%TO.N,/PB11{slash}MD*%
G36*
X47085490Y-40289504D02*
G01*
X48523396Y-40770724D01*
X48530154Y-40776599D01*
X48530778Y-40785532D01*
X48530497Y-40786285D01*
X48212562Y-41556214D01*
X48206237Y-41562553D01*
X48206214Y-41562562D01*
X47436285Y-41880497D01*
X47427330Y-41880488D01*
X47421005Y-41874149D01*
X47420724Y-41873396D01*
X47316695Y-41562553D01*
X46939505Y-40435492D01*
X46940129Y-40426562D01*
X46942324Y-40423512D01*
X47073510Y-40292326D01*
X47081782Y-40288900D01*
X47085490Y-40289504D01*
G37*
%TD.AperFunction*%
%TD*%
%TA.AperFunction,Conductor*%
%TO.N,/NRST*%
G36*
X41899732Y-20004604D02*
G01*
X42261084Y-20189134D01*
X42266893Y-20195948D01*
X42266588Y-20203991D01*
X42177564Y-20421176D01*
X42171255Y-20427531D01*
X42171176Y-20427564D01*
X41953991Y-20516588D01*
X41945036Y-20516555D01*
X41939134Y-20511084D01*
X41754604Y-20149733D01*
X41753894Y-20140808D01*
X41756750Y-20136142D01*
X41886141Y-20006751D01*
X41894413Y-20003325D01*
X41899732Y-20004604D01*
G37*
%TD.AperFunction*%
%TD*%
%TA.AperFunction,Conductor*%
%TO.N,/NRST*%
G36*
X21172313Y-11507193D02*
G01*
X21178909Y-11513249D01*
X21180000Y-11518183D01*
X21180000Y-11701816D01*
X21176573Y-11710089D01*
X21172313Y-11712806D01*
X20705305Y-11883330D01*
X20696358Y-11882949D01*
X20690496Y-11876851D01*
X20580883Y-11614509D01*
X20580857Y-11605556D01*
X20580862Y-11605542D01*
X20690496Y-11343147D01*
X20696848Y-11336836D01*
X20705302Y-11336669D01*
X21172313Y-11507193D01*
G37*
%TD.AperFunction*%
%TD*%
%TA.AperFunction,Conductor*%
%TO.N,/PA13{slash}JTMS_SWDIO*%
G36*
X11556974Y-40260384D02*
G01*
X12963790Y-40770535D01*
X12970399Y-40776577D01*
X12970800Y-40785523D01*
X12970615Y-40786000D01*
X12652562Y-41556214D01*
X12646237Y-41562553D01*
X12646214Y-41562562D01*
X11875904Y-41880654D01*
X11866949Y-41880645D01*
X11860624Y-41874306D01*
X11860483Y-41873948D01*
X11340469Y-40477020D01*
X11340794Y-40468072D01*
X11343158Y-40464669D01*
X11544717Y-40263110D01*
X11552989Y-40259684D01*
X11556974Y-40260384D01*
G37*
%TD.AperFunction*%
%TD*%
%TA.AperFunction,Conductor*%
%TO.N,/PA13{slash}JTMS_SWDIO*%
G36*
X3180902Y-32788060D02*
G01*
X3186234Y-32792537D01*
X3241875Y-32879293D01*
X3355705Y-33056777D01*
X3398539Y-33123563D01*
X3400120Y-33132377D01*
X3396963Y-33138152D01*
X3198365Y-33336750D01*
X3190092Y-33340177D01*
X3183475Y-33338126D01*
X2784789Y-33064709D01*
X2779904Y-33057204D01*
X2781757Y-33048443D01*
X2783096Y-33046824D01*
X2947624Y-32880975D01*
X2951485Y-32878394D01*
X3171948Y-32788027D01*
X3180902Y-32788060D01*
G37*
%TD.AperFunction*%
%TD*%
%TA.AperFunction,Conductor*%
%TO.N,/PA14{slash}JTCK_SWCLK*%
G36*
X19181001Y-40254434D02*
G01*
X20501286Y-40740124D01*
X20583861Y-40770501D01*
X20590443Y-40776574D01*
X20590803Y-40785521D01*
X20590636Y-40785948D01*
X20272562Y-41556214D01*
X20266237Y-41562553D01*
X20266214Y-41562562D01*
X19495948Y-41880636D01*
X19486993Y-41880627D01*
X19480668Y-41874288D01*
X19480501Y-41873861D01*
X19363649Y-41556214D01*
X18964435Y-40471004D01*
X18964795Y-40462059D01*
X18967140Y-40458697D01*
X19168695Y-40257142D01*
X19176967Y-40253716D01*
X19181001Y-40254434D01*
G37*
%TD.AperFunction*%
%TD*%
%TA.AperFunction,Conductor*%
%TO.N,/PA14{slash}JTCK_SWCLK*%
G36*
X8951267Y-34087711D02*
G01*
X8958400Y-34093123D01*
X8960000Y-34099028D01*
X8960000Y-34380971D01*
X8956573Y-34389244D01*
X8951266Y-34392289D01*
X8484645Y-34514584D01*
X8475774Y-34513366D01*
X8470883Y-34507777D01*
X8459902Y-34481497D01*
X8360883Y-34244509D01*
X8360857Y-34235556D01*
X8360862Y-34235542D01*
X8470883Y-33972221D01*
X8477235Y-33965910D01*
X8484645Y-33965415D01*
X8951267Y-34087711D01*
G37*
%TD.AperFunction*%
%TD*%
%TA.AperFunction,Conductor*%
%TO.N,VCC_3.3V*%
G36*
X66186968Y-37116960D02*
G01*
X67022712Y-37951722D01*
X67026144Y-37959993D01*
X67022722Y-37968268D01*
X67022712Y-37968278D01*
X66186968Y-38803039D01*
X66178693Y-38806461D01*
X66171953Y-38804320D01*
X66170138Y-38803039D01*
X65334953Y-38213496D01*
X65330170Y-38205925D01*
X65330000Y-38203937D01*
X65330000Y-37716062D01*
X65333427Y-37707789D01*
X65334947Y-37706507D01*
X66171955Y-37115678D01*
X66180688Y-37113708D01*
X66186968Y-37116960D01*
G37*
%TD.AperFunction*%
%TD*%
%TA.AperFunction,Conductor*%
%TO.N,VCC_3.3V*%
G36*
X40045358Y-7254124D02*
G01*
X40049920Y-7261829D01*
X40050038Y-7263451D01*
X40051000Y-7600000D01*
X40051000Y-7600066D01*
X40050038Y-7936548D01*
X40046587Y-7944812D01*
X40038305Y-7948215D01*
X40036683Y-7948097D01*
X39360045Y-7851435D01*
X39352340Y-7846873D01*
X39350000Y-7839853D01*
X39350000Y-7360147D01*
X39353427Y-7351874D01*
X39360045Y-7348565D01*
X40036684Y-7251902D01*
X40045358Y-7254124D01*
G37*
%TD.AperFunction*%
%TD*%
%TA.AperFunction,Conductor*%
%TO.N,VCC_3.3V*%
G36*
X6933311Y-35071901D02*
G01*
X7609955Y-35168565D01*
X7617660Y-35173127D01*
X7620000Y-35180147D01*
X7620000Y-35659853D01*
X7616573Y-35668126D01*
X7609955Y-35671435D01*
X6933316Y-35768097D01*
X6924641Y-35765875D01*
X6920079Y-35758170D01*
X6919961Y-35756556D01*
X6919000Y-35420000D01*
X6919961Y-35083449D01*
X6923412Y-35075187D01*
X6931694Y-35071784D01*
X6933311Y-35071901D01*
G37*
%TD.AperFunction*%
%TD*%
%TA.AperFunction,Conductor*%
%TO.N,VCC_3.3V*%
G36*
X50141412Y-8505798D02*
G01*
X50689177Y-8914448D01*
X50693759Y-8922142D01*
X50691559Y-8930822D01*
X50690478Y-8932075D01*
X50453255Y-9170659D01*
X50453207Y-9170707D01*
X50214528Y-9408025D01*
X50206246Y-9411428D01*
X50197982Y-9407977D01*
X50196936Y-9406771D01*
X50018962Y-9170659D01*
X49785869Y-8861423D01*
X49783627Y-8852755D01*
X49786939Y-8846110D01*
X50126146Y-8506903D01*
X50134418Y-8503477D01*
X50141412Y-8505798D01*
G37*
%TD.AperFunction*%
%TD*%
%TA.AperFunction,Conductor*%
%TO.N,VCC_3.3V*%
G36*
X-1957455Y-30087097D02*
G01*
X-1950989Y-30093293D01*
X-1950000Y-30098000D01*
X-1950000Y-30581999D01*
X-1953427Y-30590272D01*
X-1957455Y-30592902D01*
X-3314059Y-31121146D01*
X-3323011Y-31120954D01*
X-3329109Y-31114732D01*
X-3649135Y-30344489D01*
X-3649144Y-30335534D01*
X-3649135Y-30335511D01*
X-3550452Y-30098000D01*
X-3329109Y-29565266D01*
X-3322770Y-29558942D01*
X-3314059Y-29558853D01*
X-1957455Y-30087097D01*
G37*
%TD.AperFunction*%
%TD*%
%TA.AperFunction,Conductor*%
%TO.N,VCC_3.3V*%
G36*
X16712016Y-40184359D02*
G01*
X16717565Y-40186798D01*
X18044807Y-40770099D01*
X18051003Y-40776565D01*
X18050914Y-40785276D01*
X17732562Y-41556214D01*
X17726237Y-41562553D01*
X17726214Y-41562562D01*
X16955276Y-41880914D01*
X16946321Y-41880905D01*
X16940099Y-41874807D01*
X16354360Y-40542018D01*
X16354168Y-40533066D01*
X16356796Y-40529040D01*
X16699039Y-40186797D01*
X16707311Y-40183371D01*
X16712016Y-40184359D01*
G37*
%TD.AperFunction*%
%TD*%
%TA.AperFunction,Conductor*%
%TO.N,VCC_3.3V*%
G36*
X7168126Y-34723427D02*
G01*
X7171435Y-34730045D01*
X7268097Y-35406683D01*
X7265875Y-35415358D01*
X7258170Y-35419920D01*
X7256548Y-35420038D01*
X6920033Y-35420999D01*
X6919967Y-35420999D01*
X6583451Y-35420038D01*
X6575187Y-35416587D01*
X6571784Y-35408305D01*
X6571902Y-35406683D01*
X6668565Y-34730045D01*
X6673127Y-34722340D01*
X6680147Y-34720000D01*
X7159853Y-34720000D01*
X7168126Y-34723427D01*
G37*
%TD.AperFunction*%
%TD*%
%TA.AperFunction,Conductor*%
%TO.N,VCC_3.3V*%
G36*
X7256549Y-32879961D02*
G01*
X7264812Y-32883412D01*
X7268215Y-32891694D01*
X7268097Y-32893316D01*
X7171435Y-33569955D01*
X7166873Y-33577660D01*
X7159853Y-33580000D01*
X6680147Y-33580000D01*
X6671874Y-33576573D01*
X6668565Y-33569955D01*
X6571902Y-32893316D01*
X6574124Y-32884641D01*
X6581829Y-32880079D01*
X6583442Y-32879961D01*
X6920000Y-32879000D01*
X7256549Y-32879961D01*
G37*
%TD.AperFunction*%
%TD*%
%TA.AperFunction,Conductor*%
%TO.N,VCC_3.3V*%
G36*
X27804727Y-13790679D02*
G01*
X27810215Y-13796598D01*
X27939119Y-14105494D01*
X27939142Y-14114449D01*
X27939119Y-14114506D01*
X27810082Y-14423720D01*
X27803733Y-14430035D01*
X27796029Y-14430452D01*
X27250434Y-14272445D01*
X27243441Y-14266852D01*
X27241989Y-14261207D01*
X27241989Y-13978499D01*
X27245416Y-13970226D01*
X27250070Y-13967373D01*
X27795801Y-13789977D01*
X27804727Y-13790679D01*
G37*
%TD.AperFunction*%
%TD*%
%TA.AperFunction,Conductor*%
%TO.N,VCC_3.3V*%
G36*
X23581726Y-13967466D02*
G01*
X23588633Y-13973165D01*
X23590000Y-13978653D01*
X23590000Y-14261346D01*
X23586573Y-14269619D01*
X23581726Y-14272533D01*
X23034079Y-14440252D01*
X23025165Y-14439398D01*
X23019855Y-14433571D01*
X22890880Y-14124506D01*
X22890857Y-14115551D01*
X22890880Y-14115494D01*
X22951596Y-13970000D01*
X23019855Y-13806427D01*
X23026204Y-13800113D01*
X23034077Y-13799747D01*
X23581726Y-13967466D01*
G37*
%TD.AperFunction*%
%TD*%
%TA.AperFunction,Conductor*%
%TO.N,VCC_3.3V*%
G36*
X14780898Y-16777927D02*
G01*
X14788204Y-16783105D01*
X14790000Y-16789335D01*
X14790000Y-17270664D01*
X14786573Y-17278937D01*
X14780898Y-17282072D01*
X14071816Y-17443557D01*
X14062988Y-17442053D01*
X14058418Y-17436649D01*
X13989265Y-17270664D01*
X13890873Y-17034498D01*
X13890855Y-17025547D01*
X14058418Y-16623349D01*
X14064763Y-16617031D01*
X14071816Y-16616442D01*
X14780898Y-16777927D01*
G37*
%TD.AperFunction*%
%TD*%
%TA.AperFunction,Conductor*%
%TO.N,VCC_3.3V*%
G36*
X27086220Y-9593429D02*
G01*
X27426570Y-9933779D01*
X27429997Y-9942052D01*
X27428201Y-9948282D01*
X27040992Y-10563866D01*
X27033686Y-10569044D01*
X27026633Y-10568455D01*
X26623800Y-10402563D01*
X26617455Y-10396244D01*
X26451544Y-9993364D01*
X26451563Y-9984411D01*
X26456132Y-9979007D01*
X27071717Y-9591797D01*
X27080545Y-9590294D01*
X27086220Y-9593429D01*
G37*
%TD.AperFunction*%
%TD*%
%TA.AperFunction,Conductor*%
%TO.N,VCC_3.3V*%
G36*
X14973454Y-26111580D02*
G01*
X15376199Y-26277436D01*
X15382544Y-26283755D01*
X15382563Y-26283800D01*
X15548489Y-26686716D01*
X15548470Y-26695671D01*
X15543987Y-26701019D01*
X14934305Y-27092091D01*
X14925491Y-27093673D01*
X14919715Y-27090516D01*
X14579358Y-26750159D01*
X14575931Y-26741886D01*
X14577667Y-26735755D01*
X14959037Y-26116265D01*
X14966292Y-26111018D01*
X14973454Y-26111580D01*
G37*
%TD.AperFunction*%
%TD*%
%TA.AperFunction,Conductor*%
%TO.N,VCC_3.3V*%
G36*
X16270898Y-26027927D02*
G01*
X16278204Y-26033105D01*
X16280000Y-26039335D01*
X16280000Y-26520664D01*
X16276573Y-26528937D01*
X16270898Y-26532072D01*
X15561816Y-26693557D01*
X15552988Y-26692053D01*
X15548418Y-26686649D01*
X15479265Y-26520664D01*
X15380873Y-26284498D01*
X15380855Y-26275547D01*
X15548418Y-25873349D01*
X15554763Y-25867031D01*
X15561816Y-25866442D01*
X16270898Y-26027927D01*
G37*
%TD.AperFunction*%
%TD*%
%TA.AperFunction,Conductor*%
%TO.N,VCC_3.3V*%
G36*
X25935358Y-25934124D02*
G01*
X25939920Y-25941829D01*
X25940038Y-25943451D01*
X25941000Y-26280000D01*
X25941000Y-26280066D01*
X25940038Y-26616548D01*
X25936587Y-26624812D01*
X25928305Y-26628215D01*
X25926683Y-26628097D01*
X25250045Y-26531435D01*
X25242340Y-26526873D01*
X25240000Y-26519853D01*
X25240000Y-26040147D01*
X25243427Y-26031874D01*
X25250045Y-26028565D01*
X25926684Y-25931902D01*
X25935358Y-25934124D01*
G37*
%TD.AperFunction*%
%TD*%
%TA.AperFunction,Conductor*%
%TO.N,VCC_3.3V*%
G36*
X27700822Y-13870933D02*
G01*
X27702045Y-13871991D01*
X27940707Y-14109293D01*
X28178003Y-14347949D01*
X28181406Y-14356230D01*
X28177955Y-14364494D01*
X28176726Y-14365557D01*
X27629920Y-14775662D01*
X27621245Y-14777884D01*
X27614627Y-14774575D01*
X27275424Y-14435372D01*
X27271997Y-14427099D01*
X27274336Y-14420080D01*
X27684443Y-13873271D01*
X27692147Y-13868711D01*
X27700822Y-13870933D01*
G37*
%TD.AperFunction*%
%TD*%
%TA.AperFunction,Conductor*%
%TO.N,VCC_3.3V*%
G36*
X6933311Y-32531901D02*
G01*
X7609955Y-32628565D01*
X7617660Y-32633127D01*
X7620000Y-32640147D01*
X7620000Y-33119853D01*
X7616573Y-33128126D01*
X7609955Y-33131435D01*
X6933316Y-33228097D01*
X6924641Y-33225875D01*
X6920079Y-33218170D01*
X6919961Y-33216556D01*
X6919000Y-32880000D01*
X6919961Y-32543449D01*
X6923412Y-32535187D01*
X6931694Y-32531784D01*
X6933311Y-32531901D01*
G37*
%TD.AperFunction*%
%TD*%
%TA.AperFunction,Conductor*%
%TO.N,VCC_3.3V*%
G36*
X15207011Y-25867946D02*
G01*
X15211581Y-25873350D01*
X15379125Y-26275500D01*
X15379144Y-26284455D01*
X15379125Y-26284500D01*
X15211581Y-26686649D01*
X15205236Y-26692968D01*
X15198183Y-26693557D01*
X14489102Y-26532072D01*
X14481796Y-26526894D01*
X14480000Y-26520664D01*
X14480000Y-26039335D01*
X14483427Y-26031062D01*
X14489101Y-26027927D01*
X15198183Y-25866442D01*
X15207011Y-25867946D01*
G37*
%TD.AperFunction*%
%TD*%
%TA.AperFunction,Conductor*%
%TO.N,VCC_3.3V*%
G36*
X40063311Y-7251901D02*
G01*
X40739955Y-7348565D01*
X40747660Y-7353127D01*
X40750000Y-7360147D01*
X40750000Y-7839853D01*
X40746573Y-7848126D01*
X40739955Y-7851435D01*
X40063316Y-7948097D01*
X40054641Y-7945875D01*
X40050079Y-7938170D01*
X40049961Y-7936556D01*
X40049000Y-7600000D01*
X40049961Y-7263449D01*
X40053412Y-7255187D01*
X40061694Y-7251784D01*
X40063311Y-7251901D01*
G37*
%TD.AperFunction*%
%TD*%
%TA.AperFunction,Conductor*%
%TO.N,VCC_3.3V*%
G36*
X58620273Y-39863427D02*
G01*
X58622903Y-39867455D01*
X59151146Y-41224058D01*
X59150954Y-41233010D01*
X59144732Y-41239108D01*
X58374489Y-41559134D01*
X58365534Y-41559143D01*
X58365511Y-41559134D01*
X57595267Y-41239108D01*
X57588942Y-41232769D01*
X57588853Y-41224058D01*
X58117097Y-39867455D01*
X58123293Y-39860989D01*
X58128000Y-39860000D01*
X58612000Y-39860000D01*
X58620273Y-39863427D01*
G37*
%TD.AperFunction*%
%TD*%
%TA.AperFunction,Conductor*%
%TO.N,VCC_3.3V*%
G36*
X35704494Y-35552043D02*
G01*
X35705557Y-35553273D01*
X36115662Y-36100079D01*
X36117884Y-36108754D01*
X36114575Y-36115372D01*
X35775372Y-36454575D01*
X35767099Y-36458002D01*
X35760079Y-36455662D01*
X35213273Y-36045557D01*
X35208711Y-36037852D01*
X35210933Y-36029177D01*
X35211978Y-36027967D01*
X35449293Y-35789293D01*
X35687951Y-35551994D01*
X35696230Y-35548593D01*
X35704494Y-35552043D01*
G37*
%TD.AperFunction*%
%TD*%
%TA.AperFunction,Conductor*%
%TO.N,VCC_3.3V*%
G36*
X35139920Y-35124337D02*
G01*
X35686726Y-35534442D01*
X35691288Y-35542147D01*
X35689066Y-35550822D01*
X35688003Y-35552051D01*
X35450755Y-35790659D01*
X35450707Y-35790707D01*
X35212051Y-36028003D01*
X35203769Y-36031406D01*
X35195505Y-36027955D01*
X35194442Y-36026726D01*
X34784337Y-35479920D01*
X34782115Y-35471245D01*
X34785423Y-35464629D01*
X35124628Y-35125423D01*
X35132900Y-35121997D01*
X35139920Y-35124337D01*
G37*
%TD.AperFunction*%
%TD*%
%TA.AperFunction,Conductor*%
%TO.N,VCC_3.3V*%
G36*
X26194494Y-26042043D02*
G01*
X26195557Y-26043273D01*
X26605662Y-26590079D01*
X26607884Y-26598754D01*
X26604575Y-26605372D01*
X26265372Y-26944575D01*
X26257099Y-26948002D01*
X26250079Y-26945662D01*
X25703273Y-26535557D01*
X25698711Y-26527852D01*
X25700933Y-26519177D01*
X25701978Y-26517967D01*
X25939293Y-26279293D01*
X26177951Y-26041994D01*
X26186230Y-26038593D01*
X26194494Y-26042043D01*
G37*
%TD.AperFunction*%
%TD*%
M02*
